<?xml version="1.0" encoding="UTF-8"?><svg id="Main" xmlns="http://www.w3.org/2000/svg" viewBox="0 0 24 24"><defs><style>.cls-1{fill:#f2c454;}.cls-2{fill:#898ca5;}</style></defs><path class="cls-2" d="M19.88,15.49c-1.93,0-3.49-1.56-3.49-3.49s1.56-3.49,3.49-3.49h1.48c-1.42-3.8-5.07-6.51-9.36-6.51C6.48,2,2,6.48,2,12s4.48,10,10,10c4.29,0,7.95-2.71,9.36-6.51h-1.48ZM12,5.95c1.78,0,3.23,1.44,3.23,3.23s-1.44,3.23-3.23,3.23-3.23-1.44-3.23-3.23,1.44-3.23,3.23-3.23ZM12,20.29c-2.68,0-5.06-1.27-6.58-3.25,1.51-1.98,3.9-3.25,6.58-3.25s5.06,1.28,6.58,3.25c-1.51,1.98-3.9,3.25-6.58,3.25Z"/><path class="cls-1" d="M17.9,12c0,1.1.89,1.99,1.99,1.99h1.92c.13-.64.2-1.31.2-1.99s-.07-1.35-.2-1.99h-1.92c-1.1,0-1.99.89-1.99,1.99Z"/></svg>