<?xml version="1.0" encoding="UTF-8"?><svg id="Main" xmlns="http://www.w3.org/2000/svg" viewBox="0 0 24 24"><defs><style>.cls-1{fill:#e1e3f8;}</style></defs><path class="cls-1" d="M5.97,6.37c0-2.41,1.96-4.37,4.37-4.37s4.37,1.96,4.37,4.37c0,.43-.08.84-.2,1.23-2.09.32-3.93,1.42-5.2,3-1.91-.47-3.34-2.18-3.34-4.23ZM7.48,15.76c0-1.13.23-2.21.64-3.2-3.53.94-6.12,4.15-6.12,7.98v.31c0,.63.51,1.15,1.15,1.15h7.19c-1.75-1.52-2.86-3.75-2.86-6.24ZM15.75,9.5c-3.46,0-6.27,2.81-6.27,6.27s2.81,6.27,6.27,6.27,6.27-2.81,6.27-6.27-2.81-6.27-6.27-6.27ZM18.44,14.76c.55,0,1,.45,1,1s-.45,1-1,1h-1.69v1.69c0,.55-.45,1-1,1s-1-.45-1-1v-1.69h-1.69c-.55,0-1-.45-1-1s.45-1,1-1h1.69v-1.69c0-.55.45-1,1-1s1,.45,1,1v1.69h1.69Z"/></svg>