<?xml version="1.0" encoding="UTF-8"?><svg xmlns="http://www.w3.org/2000/svg" viewBox="0 0 24 24"><defs><style>.cls-1{fill:#335;}.cls-2{fill:#e1e3f8;}.cls-3{fill:#e25344;}</style></defs><g id="back"><rect class="cls-1" width="24" height="24"/></g><g id="Main"><path class="cls-3" d="M16.85,8.08c0,2.68-2.17,4.85-4.85,4.85s-4.85-2.17-4.85-4.85,2.17-4.85,4.85-4.85,4.85,2.17,4.85,4.85Z"/><path class="cls-2" d="M12.15,15.56c-.09.13-.25.21-.41.21h-2.41c-.58,0-1.06.47-1.06,1.06s.47,1.06,1.06,1.06h3.89c.28,0,.5.22.5.5s-.22.5-.5.5h-3.89c-1.13,0-2.06-.92-2.06-2.06,0-.04,0-.07.01-.11l-3.44-1.77c-.64-.33-1.43-.06-1.74.59-.27.59-.05,1.29.51,1.62l6.88,4.04c1.73,1.02,3.87,1.06,5.64.11l2.35-1.26v-6.17h-2.34c-2.01.38-2.96,1.62-3,1.68Z"/><rect class="cls-2" x="18.49" y="13.43" width="3.51" height="7.1" rx=".84" ry=".84"/><path class="cls-2" d="M12.71,8.08l1.51-1.51c.2-.2.2-.51,0-.71s-.51-.2-.71,0l-1.51,1.51-1.51-1.51c-.2-.2-.51-.2-.71,0s-.2.51,0,.71l1.51,1.51-1.51,1.51c-.2.2-.2.51,0,.71.1.1.23.15.35.15s.26-.05.35-.15l1.51-1.51,1.51,1.51c.1.1.23.15.35.15s.26-.05.35-.15c.2-.2.2-.51,0-.71l-1.51-1.51Z"/></g></svg>