<?xml version="1.0" encoding="UTF-8"?><svg id="Main" xmlns="http://www.w3.org/2000/svg" viewBox="0 0 24 24"><defs><style>.cls-1{fill:#e1e3f8;}</style></defs><path id="Trash" class="cls-1" d="M19.62,5.93h-3.55v-1.43c0-1.38-1.12-2.49-2.49-2.49h-3.15c-1.38,0-2.49,1.12-2.49,2.49v1.43h-3.55c-.64,0-1.17.52-1.17,1.17s.52,1.17,1.17,1.17h.6v10.35c0,1.87,1.51,3.38,3.38,3.38h7.27c1.87,0,3.38-1.51,3.38-3.38v-10.35h.6c.64,0,1.17-.52,1.17-1.17s-.52-1.17-1.17-1.17ZM10.05,4.5c0-.21.17-.37.37-.37h3.15c.21,0,.37.17.37.37v1.43h-3.9v-1.43ZM9.76,18.05c-.59,0-1.06-.47-1.06-1.06v-4.86c0-.59.47-1.06,1.06-1.06s1.06.47,1.06,1.06v4.86c0,.59-.47,1.06-1.06,1.06ZM14.24,18.05c-.59,0-1.06-.47-1.06-1.06v-4.86c0-.59.47-1.06,1.06-1.06s1.06.47,1.06,1.06v4.86c0,.59-.47,1.06-1.06,1.06Z"/></svg>