<?xml version="1.0" encoding="UTF-8"?><svg id="Main" xmlns="http://www.w3.org/2000/svg" viewBox="0 0 24 24"><defs><style>.cls-1{fill:#e1e3f8;}</style></defs><path class="cls-1" d="M13.55,22c.49,0,1.18-.26,1.17-1.08,0-.82.37-1.66,1.59-2.13,1.08-.41,1.39-.36,2.1.06.71.41,1.27-.06,1.52-.48l1.57-2.67c.25-.42.38-1.14-.32-1.56-.71-.41-.91-.66-1.08-1.8-.19-1.29.36-2.03,1.08-2.42.72-.39.6-1.12.37-1.55l-1.61-2.7c-.25-.42-.82-.88-1.52-.46-.7.42-1.62.52-2.64-.29-.9-.72-1.01-1.02-1.01-1.84s-.69-1.07-1.18-1.07h-3.1c-.49,0-1.18.25-1.18,1.07s-.11,1.12-1.01,1.84c-1.02.82-1.93.72-2.64.29-.7-.42-1.27.04-1.52.46l-1.68,2.7c-.23.43-.35,1.15.37,1.55.72.39,1.27,1.14,1.08,2.42-.17,1.14-.37,1.39-1.08,1.8-.71.41-.57,1.14-.32,1.56l1.57,2.67c.25.42.81.89,1.52.48.71-.41,1.02-.47,2.1-.06,1.22.46,1.6,1.31,1.59,2.13-.01.82.68,1.08,1.17,1.08h3.11ZM12,6.31c3.14,0,5.69,2.55,5.69,5.69s-2.55,5.69-5.69,5.69-5.69-2.55-5.69-5.69,2.55-5.69,5.69-5.69ZM12,9.53c1.37,0,2.47,1.11,2.47,2.47s-1.11,2.47-2.47,2.47-2.47-1.11-2.47-2.47,1.11-2.47,2.47-2.47Z"/></svg>