<?xml version="1.0" encoding="UTF-8"?><svg id="Main" xmlns="http://www.w3.org/2000/svg" viewBox="0 0 24 24"><defs><style>.cls-1{fill:#e1e3f8;}</style></defs><path id="Calendar" class="cls-1" d="M3.35,10.13v9.56c0,1.28,1.03,2.31,2.31,2.31h12.69c1.28,0,2.31-1.03,2.31-2.31v-9.56H3.35ZM20.65,7.12v.91H3.35v-.91c0-1.28,1.03-2.31,2.31-2.31h1.65v-1.65c0-.64.52-1.16,1.16-1.16s1.16.52,1.16,1.16v1.65h4.73v-1.65c0-.64.52-1.16,1.16-1.16s1.16.52,1.16,1.16v1.65h1.65c1.28,0,2.31,1.03,2.31,2.31ZM9.15,13.87c0,.8-.65,1.45-1.45,1.45s-1.45-.65-1.45-1.45.65-1.45,1.45-1.45,1.45.65,1.45,1.45ZM12,12.42c.8,0,1.45.65,1.45,1.45s-.65,1.45-1.45,1.45-1.45-.65-1.45-1.45.65-1.45,1.45-1.45ZM16.3,12.42c.8,0,1.45.65,1.45,1.45s-.65,1.45-1.45,1.45-1.45-.65-1.45-1.45.65-1.45,1.45-1.45ZM7.7,16.81c.8,0,1.45.65,1.45,1.45s-.65,1.45-1.45,1.45-1.45-.65-1.45-1.45.65-1.45,1.45-1.45ZM12,16.81c.8,0,1.45.65,1.45,1.45s-.65,1.45-1.45,1.45-1.45-.65-1.45-1.45.65-1.45,1.45-1.45ZM16.3,16.81c.8,0,1.45.65,1.45,1.45s-.65,1.45-1.45,1.45-1.45-.65-1.45-1.45.65-1.45,1.45-1.45Z"/></svg>