<?xml version="1.0" encoding="UTF-8"?><svg id="Main" xmlns="http://www.w3.org/2000/svg" viewBox="0 0 24 24"><defs><style>.cls-1{fill:#e1e3f8;}</style></defs><path class="cls-1" d="M20.82,7.33c-.43-.34-1.06-.27-1.41.16l-9.43,11.86-3.34-5.29c-.3-.47-.91-.61-1.38-.31-.47.29-.61.91-.31,1.38l4.85,7.67,11.19-14.07c.34-.43.27-1.06-.16-1.4Z"/><path class="cls-1" d="M5.79,8.53h3.47v3.47c0,.55.45,1,1,1s1-.45,1-1v-3.47h3.47c.55,0,1-.45,1-1s-.45-1-1-1h-3.47v-3.47c0-.55-.45-1-1-1s-1,.45-1,1v3.47h-3.47c-.55,0-1,.45-1,1s.45,1,1,1Z"/></svg>