<?xml version="1.0" encoding="UTF-8"?><svg id="Main" xmlns="http://www.w3.org/2000/svg" viewBox="0 0 24 24"><defs><style>.cls-1{fill:#e1e3f8;}</style></defs><path class="cls-1" d="M20.48,5H3.56c-.83,0-1.5-.67-1.5-1.5s.67-1.5,1.5-1.5h16.91c.83,0,1.5.67,1.5,1.5s-.67,1.5-1.5,1.5Z"/><path class="cls-1" d="M20.49,22H3.51c-.83,0-1.51-.67-1.51-1.51s.67-1.51,1.51-1.51h16.99c.83,0,1.51.67,1.51,1.51s-.67,1.51-1.51,1.51Z"/><path class="cls-1" d="M20.48,13.5H3.56c-.83,0-1.5-.67-1.5-1.5s.67-1.5,1.5-1.5h16.91c.83,0,1.5.67,1.5,1.5s-.67,1.5-1.5,1.5Z"/></svg>