<?xml version="1.0" encoding="UTF-8"?><svg id="Main" xmlns="http://www.w3.org/2000/svg" viewBox="0 0 24 24"><defs><style>.cls-1{fill:#e1e3f8;}</style></defs><path class="cls-1" d="M15.33,7.5h-6.66c-.83,0-1.5-.67-1.5-1.5s.67-1.5,1.5-1.5h6.66c.83,0,1.5.67,1.5,1.5s-.67,1.5-1.5,1.5Z"/><path class="cls-1" d="M15.33,13.5h-6.66c-.83,0-1.5-.67-1.5-1.5s.67-1.5,1.5-1.5h6.66c.83,0,1.5.67,1.5,1.5s-.67,1.5-1.5,1.5Z"/><path class="cls-1" d="M15.33,19.5h-6.66c-.83,0-1.5-.67-1.5-1.5s.67-1.5,1.5-1.5h6.66c.83,0,1.5.67,1.5,1.5s-.67,1.5-1.5,1.5Z"/></svg>