<?xml version="1.0" encoding="UTF-8"?><svg id="Main" xmlns="http://www.w3.org/2000/svg" viewBox="0 0 24 24"><defs><style>.cls-1{fill:#9ce66b;}</style></defs><path class="cls-1" d="M7.29,17.55c-2.04,0-3.69-1.65-3.69-3.69s1.65-3.69,3.69-3.69c.05,0,.11.01.16.02.17-2.08,1.89-3.73,4.02-3.73,1.89,0,3.46,1.3,3.91,3.04.3-.07.62-.12.94-.12,2.26,0,4.09,1.83,4.09,4.09s-1.83,4.09-4.09,4.09H7.29ZM11.31,16.03l3.58-4.5c.17-.22.14-.53-.08-.7-.22-.17-.53-.14-.7.08l-3.14,3.95-1.05-1.66c-.15-.23-.46-.3-.69-.16-.23.15-.3.46-.16.69l1.42,2.25c.09.14.23.22.4.23,0,0,.02,0,.03,0,.15,0,.3-.07.39-.19Z"/></svg>