<?xml version="1.0" encoding="UTF-8"?><svg id="Main" xmlns="http://www.w3.org/2000/svg" viewBox="0 0 24 24"><defs><style>.cls-1{fill:#e1e3f8;}</style></defs><path class="cls-1" d="M4.77,10.83v-1.67h-.03c-.24,0-.43-.19-.43-.43s.19-.43.43-.43h.03v-.44c0-.28.22-.5.5-.5s.5.22.5.5v.44h.44c.24,0,.43.19.43.43s-.19.43-.43.43h-.44v1.51c0,.23.1.34.32.34.03,0,.1,0,.12,0,.23,0,.41.18.41.41,0,.18-.12.32-.26.37-.18.07-.36.1-.57.1-.6,0-1.03-.24-1.03-1.06ZM6.67,10.09h0c0-1.03.81-1.85,1.91-1.85s1.9.8,1.9,1.82h0c0,1.03-.81,1.85-1.91,1.85s-1.9-.8-1.9-1.82ZM9.49,10.09h0c0-.53-.37-.99-.93-.99s-.91.43-.91.96h0c0,.53.37.99.93.99s.91-.43.91-.96ZM12.38,7.49c0-.28.22-.5.5-.5s.5.22.5.5v1.32c.24-.33.57-.57,1.1-.57.82,0,1.6.64,1.6,1.82h0c0,1.19-.77,1.83-1.6,1.83-.53,0-.86-.24-1.1-.53h0c0,.28-.22.5-.5.5s-.5-.22-.5-.5v-3.88ZM15.09,10.07h0c0-.6-.39-.99-.86-.99s-.85.39-.85.97h0c0,.6.39.99.85.99s.86-.38.86-.97ZM18.1,11.91c-1.06,0-1.84-.74-1.84-1.82h0c0-1.02.72-1.85,1.74-1.85,1.18,0,1.7.96,1.7,1.7,0,.29-.2.48-.47.48h-1.98c.1.45.41.69.86.69.28,0,.51-.09.71-.24.07-.05.14-.08.24-.08.23,0,.39.16.39.39,0,.13-.06.22-.13.3-.31.26-.7.43-1.22.43ZM18.74,9.79c-.06-.45-.32-.75-.74-.75s-.68.3-.76.75h1.51ZM4.39,15.51h0c0-.63.47-.92,1.15-.92.29,0,.49.05.69.12v-.05c0-.34-.21-.52-.61-.52-.23,0-.4.03-.56.08-.04.02-.08.02-.12.02-.19,0-.33-.14-.33-.33,0-.14.09-.27.22-.31.25-.1.52-.15.91-.15.45,0,.75.11.96.32s.31.52.31.91v1.29c0,.22-.18.39-.39.39-.23,0-.39-.16-.39-.33h0c-.2.21-.46.36-.86.36-.54,0-.98-.3-.98-.87ZM6.24,15.33v-.14c-.14-.06-.32-.11-.51-.11-.34,0-.56.14-.56.39h0c0,.23.18.36.44.36.38,0,.63-.2.63-.5ZM10.24,15.96c0,.23-.17.4-.4.4s-.4-.18-.4-.4v-.04c-.2.27-.46.46-.89.46-.66,0-1.29-.52-1.29-1.47h0c0-.96.62-1.48,1.29-1.48.43,0,.69.2.89.42v-1.03c0-.23.17-.4.4-.4s.4.17.4.4v3.13ZM8.06,14.9h0c0,.48.32.8.69.8s.69-.31.69-.79h0c0-.48-.31-.8-.69-.8s-.69.31-.69.79ZM13.5,15.96c0,.23-.17.4-.4.4s-.4-.18-.4-.4v-.04c-.2.27-.46.46-.89.46-.66,0-1.29-.52-1.29-1.47h0c0-.96.62-1.48,1.29-1.48.43,0,.69.2.89.42v-1.03c0-.23.17-.4.4-.4s.4.17.4.4v3.13ZM11.32,14.9h0c0,.48.32.8.69.8s.69-.31.69-.79h0c0-.48-.31-.8-.69-.8s-.69.31-.69.79ZM15.25,16.39c-.85,0-1.48-.6-1.48-1.47h0c0-.82.58-1.49,1.4-1.49.95,0,1.37.77,1.37,1.37,0,.23-.16.39-.38.39h-1.6c.08.37.33.56.69.56.23,0,.41-.07.57-.19.06-.04.11-.06.2-.06.19,0,.31.13.31.32,0,.11-.05.18-.11.24-.25.21-.57.34-.99.34ZM15.77,14.69c-.05-.36-.26-.6-.6-.6s-.55.24-.62.6h1.21ZM19.69,15.96c0,.23-.17.4-.4.4s-.4-.18-.4-.4v-.04c-.2.27-.46.46-.89.46-.66,0-1.29-.52-1.29-1.47h0c0-.96.62-1.48,1.29-1.48.43,0,.69.2.89.42v-1.03c0-.23.17-.4.4-.4s.4.17.4.4v3.13ZM17.51,14.9h0c0,.48.32.8.69.8s.69-.31.69-.79h0c0-.48-.31-.8-.69-.8s-.69.31-.69.79ZM21,3v18H3V3h18M22,2H2v20h20V2h0Z"/></svg>