<?xml version="1.0" encoding="UTF-8"?><svg id="Main" xmlns="http://www.w3.org/2000/svg" viewBox="0 0 24 24"><defs><style>.cls-1{fill:#e1e3f8;}</style></defs><path class="cls-1" d="M14.99,5.26l-4.64,4.64c-.29.29-.5.64-.62,1.02l-1.12,3.45c-.21.65.4,1.26,1.05,1.05l3.45-1.12c.38-.12.73-.34,1.02-.62l4.64-4.64-3.78-3.78ZM16.49,3.77l3.78,3.78,1.16-1.16c.73-.73.73-1.91,0-2.63l-1.15-1.15c-.73-.73-1.91-.73-2.63,0l-1.16,1.16ZM17.27,22.04H5.26c-1.79,0-3.24-1.45-3.24-3.24V6.78c0-1.79,1.45-3.24,3.24-3.24h5.46c.55,0,1,.45,1,1s-.45,1-1,1h-5.46c-.68,0-1.24.56-1.24,1.24v12.01c0,.68.56,1.24,1.24,1.24h12.01c.68,0,1.24-.56,1.24-1.24v-4.88c0-.55.45-1,1-1s1,.45,1,1v4.88c0,1.79-1.45,3.24-3.24,3.24Z"/></svg>