<?xml version="1.0" encoding="UTF-8"?><svg id="Main" xmlns="http://www.w3.org/2000/svg" viewBox="0 0 24 24"><defs><style>.cls-1{fill:#f2c454;}</style></defs><path class="cls-1" d="M19.78,21.96H4.22c-.73,0-1.4-.38-1.79-1-.4-.64-.44-1.43-.1-2.11L10.11,3.21c.36-.73,1.08-1.18,1.89-1.18s1.52.45,1.89,1.18l7.78,15.63c.34.68.3,1.47-.1,2.11-.39.63-1.06,1-1.79,1ZM11.59,15.77h.83c.09,0,.18-.07.2-.16l.97-4.8c.09-.46-.04-.94-.36-1.27-.3-.3-.73-.49-1.22-.49s-.92.19-1.22.49c-.32.33-.45.81-.36,1.27l.97,4.8c.02.1.1.16.2.16ZM11.99,16.83c-.72,0-1.3.58-1.3,1.3s.58,1.3,1.3,1.3,1.3-.58,1.3-1.3-.58-1.3-1.3-1.3Z"/></svg>