<?xml version="1.0" encoding="UTF-8"?><svg id="Main" xmlns="http://www.w3.org/2000/svg" viewBox="0 0 24 24"><defs><style>.cls-1{fill:#e1e3f8;}</style></defs><path id="Check" class="cls-1" d="M21.38,6.41c-.8-.77-2.07-.75-2.85.05l-6.54,6.79-6.54-6.79c-.77-.8-2.05-.82-2.85-.05-.8.77-.82,2.05-.05,2.85l7.99,8.29s.02.01.03.02.02.02.02.03c.05.05.1.08.15.12.05.04.09.08.14.11.07.04.14.08.21.11.05.02.09.05.14.07.08.03.17.05.25.08.04.01.08.03.12.03.13.02.26.04.38.04s.26-.01.38-.04c.04,0,.08-.02.12-.03.09-.02.17-.04.26-.08.05-.02.09-.05.13-.07.07-.04.15-.07.22-.12.05-.03.09-.07.13-.11.05-.04.11-.08.16-.12,0,0,.02-.02.02-.03,0,0,.02-.01.03-.02l7.99-8.29c.77-.8.75-2.07-.05-2.85Z"/></svg>