<?xml version="1.0" encoding="UTF-8"?><svg id="Main" xmlns="http://www.w3.org/2000/svg" viewBox="0 0 24 24"><defs><style>.cls-1{fill:#e1e3f8;}</style></defs><path class="cls-1" d="M11.73,17.09h0s0,0,0,0c0,0,0,0,0,0,.09.09.2.16.32.21.12.05.25.08.38.08s.26-.03.38-.08c.12-.05.23-.12.32-.21,0,0,0,0,0,0h0s0,0,0,0l5.18-5.16c.39-.39.39-1.02,0-1.41-.39-.39-1.02-.39-1.41,0l-3.47,3.46V3.01c0-.55-.45-1-1-1s-1,.45-1,1v10.97l-3.47-3.46c-.39-.39-1.02-.39-1.41,0-.39.39-.39,1.02,0,1.41l5.18,5.16Z"/><path class="cls-1" d="M21,14.98c-.55,0-1,.45-1,1v4.02H4v-4.02c0-.55-.45-1-1-1s-1,.45-1,1v5.02c0,.55.45,1,1,1h18c.55,0,1-.45,1-1v-5.02c0-.55-.45-1-1-1Z"/></svg>