<?xml version="1.0" encoding="UTF-8"?><svg id="Main" xmlns="http://www.w3.org/2000/svg" viewBox="0 0 24 24"><defs><style>.cls-1{fill:#e1e3f8;}</style></defs><path class="cls-1" d="M16.99,15.28h4.38c.34,0,.62.28.62.63v1.23c0,.35-.28.63-.62.63h-4.38c-.68,0-1.24-.56-1.24-1.24s.56-1.24,1.24-1.24ZM16.99,19.77c-1.78,0-3.23-1.46-3.23-3.25s1.45-3.25,3.23-3.25h3.38v-.66c0-.73-.59-1.32-1.32-1.32H5.08c-.6,0-1.08-.49-1.08-1.09s.49-1.09,1.08-1.09h3.78l1.99-2h-5.77c-1.67,0-3.03,1.35-3.07,3.02h0s0,8.95,0,8.95c0,1.61,1.3,2.91,2.91,2.91h14.14c.73,0,1.32-.59,1.32-1.32v-.9h-3.38ZM21.19,2h-5.01c-.45,0-.68.55-.36.87l1.12,1.12-5.1,5.13h6.18l2.01-2.02,1.1,1.11c.32.32.87.09.87-.36V2.81c0-.45-.36-.81-.81-.81Z"/></svg>