<?xml version="1.0" encoding="UTF-8"?><svg id="Main" xmlns="http://www.w3.org/2000/svg" viewBox="0 0 24 24"><defs><style>.cls-1{fill:#e1e3f8;}</style></defs><path class="cls-1" d="M19.87,7.79c1.18,0,2.13.96,2.13,2.13v9.94c0,1.18-.96,2.13-2.13,2.13H4.13c-1.18,0-2.13-.96-2.13-2.13V7.13c0-1.18.96-2.13,2.13-2.13h5.16c1.18,0,2.13.96,2.13,2.13v.66h8.44ZM8.49,9.05c-1.29,0-2.34,1.05-2.34,2.34s1.05,2.34,2.34,2.34,2.34-1.05,2.34-2.34-1.05-2.34-2.34-2.34ZM12.89,19.22c0-2.45-1.99-4.44-4.44-4.44h0c-2.45,0-4.44,1.99-4.44,4.44v.17c0,.34.28.62.62.62h7.64c.34,0,.62-.28.62-.62v-.17ZM17.67,15.5c0-.28-.22-.5-.5-.5h-2.55c-.28,0-.5.22-.5.5s.22.5.5.5h2.55c.28,0,.5-.22.5-.5ZM19.09,18c.28,0,.5-.22.5-.5s-.22-.5-.5-.5h-4.47c-.28,0-.5.22-.5.5s.22.5.5.5h4.47ZM18.09,20c.28,0,.5-.22.5-.5s-.22-.5-.5-.5h-3.47c-.28,0-.5.22-.5.5s.22.5.5.5h3.47Z"/></svg>