<svg xmlns="http://www.w3.org/2000/svg" style="display:none">

  <!-- arrow-left -->
  <symbol id="icon-arrow-left" viewBox="0 0 24 24">
    <path fill="currentColor" d="M16.09,6.56v10.89c0,1.06-1.2,1.68-2.07,1.06l-7.58-5.44c-.72-.52-.72-1.6,0-2.12l7.58-5.44c.86-.62,2.07,0,2.07,1.06Z"/>
  </symbol>

  <!-- arrow-right -->
  <symbol id="icon-arrow-right" viewBox="0 0 24 24">
    <path fill="currentColor" d="M7.91,6.56v10.89c0,1.06,1.2,1.68,2.07,1.06l7.58-5.44c.72-.52.72-1.6,0-2.12l-7.58-5.44c-.86-.62-2.07,0-2.07,1.06Z"/>
  </symbol>

  <!-- avatar-debt -->
  <symbol id="icon-avatar-debt" viewBox="0 0 24 24"><path d="M12,22.74c-5.92,0-10.74-4.82-10.74-10.74S6.08,1.26,12,1.26s10.74,4.82,10.74,10.74-4.82,10.74-10.74,10.74ZM12,2.26C6.63,2.26,2.26,6.63,2.26,12s4.37,9.74,9.74,9.74,9.74-4.37,9.74-9.74S17.37,2.26,12,2.26Z" fill="var(--accent-color-1)"/><path d="M12,6.22c-1.7,0-3.08,1.38-3.08,3.08s1.38,3.08,3.08,3.08,3.08-1.38,3.08-3.08-1.38-3.08-3.08-3.08ZM18.28,16.81c-1.45-1.89-3.72-3.1-6.28-3.1s-4.83,1.22-6.28,3.1c1.45,1.89,3.72,3.1,6.28,3.1s4.83-1.22,6.28-3.1Z" fill="var(--accent-color-2)"/></symbol>

  <!-- avatar-nodebt -->
  <symbol id="icon-avatar-nodebt" viewBox="0 0 24 24"><path d="M12,22.74c-5.92,0-10.74-4.82-10.74-10.74S6.08,1.26,12,1.26s10.74,4.82,10.74,10.74-4.82,10.74-10.74,10.74ZM12,2.26C6.63,2.26,2.26,6.63,2.26,12s4.37,9.74,9.74,9.74,9.74-4.37,9.74-9.74S17.37,2.26,12,2.26Z" fill="var(--accent-color-1)"/><path d="M12,6.22c-1.7,0-3.08,1.38-3.08,3.08s1.38,3.08,3.08,3.08,3.08-1.38,3.08-3.08-1.38-3.08-3.08-3.08ZM18.28,16.81c-1.45-1.89-3.72-3.1-6.28-3.1s-4.83,1.22-6.28,3.1c1.45,1.89,3.72,3.1,6.28,3.1s4.83-1.22,6.28-3.1Z" fill="var(--accent-color-2)"/></symbol>

  <!-- building-expenseunpaid -->
  <symbol id="icon-building-expenseunpaid" viewBox="0 0 24 24">
    <path fill="var(--accent-color-2)" d="M16.99,15.28h4.38c.34,0,.62.28.62.63v1.23c0,.35-.28.63-.62.63h-4.38c-.68,0-1.24-.56-1.24-1.24s.56-1.24,1.24-1.24ZM16.99,19.77c-1.78,0-3.23-1.46-3.23-3.25s1.45-3.25,3.23-3.25h3.38v-.66c0-.73-.59-1.32-1.32-1.32H5.08c-.6,0-1.08-.49-1.08-1.09s.49-1.09,1.08-1.09h3.78l1.99-2h-5.77c-1.67,0-3.03,1.35-3.07,3.02h0s0,8.95,0,8.95c0,1.61,1.3,2.91,2.91,2.91h14.14c.73,0,1.32-.59,1.32-1.32v-.9h-3.38Z"/>
    <path fill="var(--accent-color-2)" d="M21.19,2h-5.01c-.45,0-.68.55-.36.87l1.12,1.12-5.1,5.13h6.18l2.01-2.02,1.1,1.11c.32.32.87.09.87-.36V2.81c0-.45-.36-.81-.81-.81Z"/>
    <path fill="var(--accent-color-1)" d="M11.4,20.73c-.26,0-.51-.1-.71-.29l-2.29-2.29-2.29,2.29c-.39.39-1.02.39-1.41,0s-.39-1.02,0-1.41l2.29-2.29-2.29-2.29c-.39-.39-.39-1.02,0-1.41s1.02-.39,1.41,0l2.29,2.29,2.29-2.29c.39-.39,1.02-.39,1.41,0s.39,1.02,0,1.41l-2.29,2.29,2.29,2.29c.39.39.39,1.02,0,1.41-.2.2-.45.29-.71.29Z"/>
  </symbol>

  <!-- button-add-user -->
  <symbol id="icon-button-add-user" viewBox="0 0 24 24">
    <path fill="currentColor" d="M5.97,6.37c0-2.41,1.96-4.37,4.37-4.37s4.37,1.96,4.37,4.37c0,.43-.08.84-.2,1.23-2.09.32-3.93,1.42-5.2,3-1.91-.47-3.34-2.18-3.34-4.23ZM7.48,15.76c0-1.13.23-2.21.64-3.2-3.53.94-6.12,4.15-6.12,7.98v.31c0,.63.51,1.15,1.15,1.15h7.19c-1.75-1.52-2.86-3.75-2.86-6.24ZM15.75,9.5c-3.46,0-6.27,2.81-6.27,6.27s2.81,6.27,6.27,6.27,6.27-2.81,6.27-6.27-2.81-6.27-6.27-6.27ZM18.44,14.76c.55,0,1,.45,1,1s-.45,1-1,1h-1.69v1.69c0,.55-.45,1-1,1s-1-.45-1-1v-1.69h-1.69c-.55,0-1-.45-1-1s.45-1,1-1h1.69v-1.69c0-.55.45-1,1-1s1,.45,1,1v1.69h1.69Z"/>
  </symbol>

  <!-- button-paid -->
  <symbol id="icon-button-paid" viewBox="0 0 24 24">
    <path fill="var(--accent-color-1)" d="M19.37,7.12c.42-.53.34-1.31-.2-1.73-.53-.42-1.31-.34-1.73.2l-7.19,9.04-2.36-3.73c-.36-.58-1.13-.75-1.7-.38-.58.36-.75,1.12-.38,1.7l4.21,6.67,9.35-11.76Z"/>
  </symbol>

  <!-- button-unpaid -->
  <symbol id="icon-button-unpaid" viewBox="0 0 24 24">
    <path fill="var(--accent-color-1)" d="M14.9,7.71c0,2.68-2.17,4.85-4.85,4.85s-4.85-2.17-4.85-4.85,2.17-4.85,4.85-4.85,4.85,2.17,4.85,4.85Z"/>
    <path fill="var(--accent-color-2)" d="M12.15,15.56c-.09.13-.25.21-.41.21h-2.41c-.58,0-1.06.47-1.06,1.06s.47,1.06,1.06,1.06h3.89c.28,0,.5.22.5.5s-.22.5-.5.5h-3.89c-1.13,0-2.06-.92-2.06-2.06,0-.04,0-.07.01-.11l-3.44-1.77c-.64-.33-1.43-.06-1.74.59-.27.59-.05,1.29.51,1.62l6.88,4.04c1.73,1.02,3.87,1.06,5.64.11l2.35-1.26v-6.17h-2.34c-2.01.38-2.96,1.62-3,1.68Z"/>
    <rect fill="var(--accent-color-2)" x="18.49" y="13.43" width="3.51" height="7.1" rx=".84" ry=".84"/>
    <path fill="var(--accent-color-2)" d="M10.76,7.71l1.51-1.51c.2-.2.2-.51,0-.71s-.51-.2-.71,0l-1.51,1.51-1.51-1.51c-.2-.2-.51-.2-.71,0s-.2.51,0,.71l1.51,1.51-1.51,1.51c-.2.2-.2.51,0,.71.1.1.23.15.35.15s.26-.05.35-.15l1.51-1.51,1.51,1.51c.1.1.23.15.35.15s.26-.05.35-.15c.2-.2.2-.51,0-.71l-1.51-1.51Z"/>
  </symbol>

  <!-- icon-caret -->
  <symbol id="icon-caret" viewBox="0 0 24 24">
    <path fill="currentColor" d="M21.38,6.41c-.8-.77-2.07-.75-2.85.05l-6.54,6.79-6.54-6.79c-.77-.8-2.05-.82-2.85-.05-.8.77-.82,2.05-.05,2.85l7.99,8.29c.05.05.1.08.15.12.05.04.09.08.14.11.07.04.14.08.21.11.05.02.09.05.14.07.08.03.17.05.25.08.04.01.08.03.12.03.13.02.26.04.38.04s.26-.01.38-.04c.04,0,.08-.02.12-.03.09-.02.17-.04.26-.08.05-.02.09-.05.13-.07.07-.04.15-.07.22-.12.05-.03.09-.07.13-.11.05-.04.11-.08.16-.12l7.99-8.29c.77-.8.75-2.07-.05-2.85Z"/>
  </symbol>

  <!-- icon-check -->
  <symbol id="icon-check" viewBox="0 0 24 24">
    <path fill="var(--accent-color-1)" d="M8.19,22.4L2.23,12.96c-.44-.7-.23-1.63.47-2.07.7-.44,1.63-.23,2.07.47l3.7,5.87L19.33,3.58c.52-.65,1.46-.76,2.11-.24.65.52.76,1.46.24,2.11l-13.48,16.96Z"/>
  </symbol>

  <!-- icon-download -->
  <symbol id="icon-download" viewBox="0 0 24 24">
    <path fill="currentColor" d="M11.73,17.09c.09.09.2.16.32.21.12.05.25.08.38.08s.26-.03.38-.08c.12-.05.23-.12.32-.21l5.18-5.16c.39-.39.39-1.02,0-1.41-.39-.39-1.02-.39-1.41,0l-3.47,3.46V3.01c0-.55-.45-1-1-1s-1,.45-1,1v10.97l-3.47-3.46c-.39-.39-1.02-.39-1.41,0-.39.39-.39,1.02,0,1.41l5.18,5.16Z"/>
    <path fill="currentColor" d="M21,14.98c-.55,0-1,.45-1,1v4.02H4v-4.02c0-.55-.45-1-1-1s-1,.45-1,1v5.02c0,.55.45,1,1,1h18c.55,0,1-.45,1-1v-5.02c0-.55-.45-1-1-1Z"/>
  </symbol>

  <!-- icon-edit -->
  <symbol id="icon-edit" viewBox="0 0 24 24">
    <path fill="currentColor" d="M14.99,5.26l-4.64,4.64c-.29.29-.5.64-.62,1.02l-1.12,3.45c-.21.65.4,1.26,1.05,1.05l3.45-1.12c.38-.12.73-.34,1.02-.62l4.64-4.64-3.78-3.78ZM16.49,3.77l3.78,3.78,1.16-1.16c.73-.73.73-1.91,0-2.63l-1.15-1.15c-.73-.73-1.91-.73-2.63,0l-1.16,1.16Z"/>
  </symbol>

  <!-- icon-ex -->
  <symbol id="icon-ex" viewBox="0 0 24 24">
    <path fill="currentColor" d="M14.12,12l6.03-6.03c.59-.59.59-1.54,0-2.12s-1.54-.59-2.12,0l-6.03,6.03L5.97,3.85c-.59-.59-1.54-.59-2.12,0s-.59,1.54,0,2.12l6.03,6.03-6.03,6.03c-.59.59-.59,1.54,0,2.12.29.29.68.44,1.06.44s.77-.15,1.06-.44l6.03-6.03,6.03,6.03c.29.29.68.44,1.06.44s.77-.15,1.06-.44c.59-.59.59-1.54,0-2.12l-6.03-6.03Z"/>
  </symbol>

  <!-- icon-go-today -->
  <symbol id="icon-go-today" viewBox="0 0 24 24">
    <path fill="currentColor" d="M12.47,4.72v-2c0-.55-.6-.9-1.07-.62l-6.36,3.66c-.35.2-.35.7,0,.9l6.36,3.66c.48.27,1.07-.07,1.07-.62v-1.98c2.98.16,5.35,2.63,5.35,5.65s-2.54,5.66-5.66,5.66-5.66-2.54-5.66-5.66c0-.83-.67-1.5-1.5-1.5s-1.5.67-1.5,1.5c0,4.78,3.89,8.66,8.66,8.66s8.66-3.88,8.66-8.66-3.72-8.48-8.35-8.65Z"/>
  </symbol>

  <!-- icon-hamburger -->
  <symbol id="icon-hamburger" viewBox="0 0 24 24">
    <path fill="currentColor" d="M15.33,7.5h-6.66c-.83,0-1.5-.67-1.5-1.5s.67-1.5,1.5-1.5h6.66c.83,0,1.5.67,1.5,1.5s-.67,1.5-1.5,1.5Z"/>
    <path fill="currentColor" d="M15.33,13.5h-6.66c-.83,0-1.5-.67-1.5-1.5s.67-1.5,1.5-1.5h6.66c.83,0,1.5.67,1.5,1.5s-.67,1.5-1.5,1.5Z"/>
    <path fill="currentColor" d="M15.33,19.5h-6.66c-.83,0-1.5-.67-1.5-1.5s.67-1.5,1.5-1.5h6.66c.83,0,1.5.67,1.5,1.5s-.67,1.5-1.5,1.5Z"/>
  </symbol>

  <!-- icon-residentcard -->
  <symbol id="icon-residentcard" viewBox="0 0 24 24">
    <path fill="currentColor" d="M19.87,7.79c1.18,0,2.13.96,2.13,2.13v9.94c0,1.18-.96,2.13-2.13,2.13H4.13c-1.18,0-2.13-.96-2.13-2.13V7.13c0-1.18.96-2.13,2.13-2.13h5.16c1.18,0,2.13.96,2.13,2.13v.66h8.44ZM8.49,9.05c-1.29,0-2.34,1.05-2.34,2.34s1.05,2.34,2.34,2.34,2.34-1.05,2.34-2.34-1.05-2.34-2.34-2.34ZM12.89,19.22c0-2.45-1.99-4.44-4.44-4.44h0c-2.45,0-4.44,1.99-4.44,4.44v.17c0,.34.28.62.62.62h7.64c.34,0,.62-.28.62-.62v-.17ZM17.67,15.5c0-.28-.22-.5-.5-.5h-2.55c-.28,0-.5.22-.5.5s.22.5.5.5h2.55c.28,0,.5-.22.5-.5ZM19.09,18c.28,0,.5-.22.5-.5s-.22-.5-.5-.5h-4.47c-.28,0-.5.22-.5.5s.22.5.5.5h4.47ZM18.09,20c.28,0,.5-.22.5-.5s-.22-.5-.5-.5h-3.47c-.28,0-.5.22-.5.5s.22.5.5.5h3.47Z"/>
  </symbol>

  <!-- icon-synced -->
  <symbol id="icon-synced" viewBox="0 0 24 24">
    <path fill="var(--accent-color-1)" d="M7.29,17.55c-2.04,0-3.69-1.65-3.69-3.69s1.65-3.69,3.69-3.69c.05,0,.11.01.16.02.17-2.08,1.89-3.73,4.02-3.73,1.89,0,3.46,1.3,3.91,3.04.3-.07.62-.12.94-.12,2.26,0,4.09,1.83,4.09,4.09s-1.83,4.09-4.09,4.09H7.29ZM11.31,16.03l3.58-4.5c.17-.22.14-.53-.08-.7-.22-.17-.53-.14-.7.08l-3.14,3.95-1.05-1.66c-.15-.23-.46-.3-.69-.16-.23.15-.3.46-.16.69l1.42,2.25c.09.14.23.22.4.23h.03c.15,0,.3-.07.39-.19Z"/>
  </symbol>

  <!-- icon-trash -->
  <symbol id="icon-trash" viewBox="0 0 24 24">
    <path fill="currentColor" d="M19.62,5.93h-3.55v-1.43c0-1.38-1.12-2.49-2.49-2.49h-3.15c-1.38,0-2.49,1.12-2.49,2.49v1.43h-3.55c-.64,0-1.17.52-1.17,1.17s.52,1.17,1.17,1.17h.6v10.35c0,1.87,1.51,3.38,3.38,3.38h7.27c1.87,0,3.38-1.51,3.38-3.38v-10.35h.6c.64,0,1.17-.52,1.17-1.17s-.52-1.17-1.17-1.17ZM10.05,4.5c0-.21.17-.37.37-.37h3.15c.21,0,.37.17.37.37v1.43h-3.9v-1.43ZM9.76,18.05c-.59,0-1.06-.47-1.06-1.06v-4.86c0-.59.47-1.06,1.06-1.06s1.06.47,1.06,1.06v4.86c0,.59-.47,1.06-1.06,1.06ZM14.24,18.05c-.59,0-1.06-.47-1.06-1.06v-4.86c0-.59.47-1.06,1.06-1.06s1.06.47,1.06,1.06v4.86c0,.59-.47,1.06-1.06,1.06Z"/>
  </symbol>

  <!-- icon-wallet -->
  <symbol id="icon-wallet" viewBox="0 0 24 24">
    <path fill="currentColor" d="M16.99,15.28h4.38c.34,0,.62.28.62.63v1.23c0,.35-.28.63-.62.63h-4.38c-.68,0-1.24-.56-1.24-1.24s.56-1.24,1.24-1.24ZM16.99,19.77c-1.78,0-3.23-1.46-3.23-3.25s1.45-3.25,3.23-3.25h3.38v-.66c0-.73-.59-1.32-1.32-1.32H5.08c-.6,0-1.08-.49-1.08-1.09s.49-1.09,1.08-1.09h3.78l1.99-2h-5.77c-1.67,0-3.03,1.35-3.07,3.02h0s0,8.95,0,8.95c0,1.61,1.3,2.91,2.91,2.91h14.14c.73,0,1.32-.59,1.32-1.32v-.9h-3.38ZM21.19,2h-5.01c-.45,0-.68.55-.36.87l1.12,1.12-5.1,5.13h6.18l2.01-2.02,1.1,1.11c.32.32.87.09.87-.36V2.81c0-.45-.36-.81-.81-.81Z"/>
  </symbol>

  <!-- icon-warning-filled -->
  <symbol id="icon-warning-filled" viewBox="0 0 24 24">
    <path fill="var(--accent-color-1)" d="M19.78,21.96H4.22c-.73,0-1.4-.38-1.79-1-.4-.64-.44-1.43-.1-2.11L10.11,3.21c.36-.73,1.08-1.18,1.89-1.18s1.52.45,1.89,1.18l7.78,15.63c.34.68.3,1.47-.1,2.11-.39.63-1.06,1-1.79,1ZM11.59,15.77h.83c.09,0,.18-.07.2-.16l.97-4.8c.09-.46-.04-.94-.36-1.27-.3-.3-.73-.49-1.22-.49s-.92.19-1.22.49c-.32.33-.45.81-.36,1.27l.97,4.8c.02.1.1.16.2.16ZM11.99,16.83c-.72,0-1.3.58-1.3,1.3s.58,1.3,1.3,1.3,1.3-.58,1.3-1.3-.58-1.3-1.3-1.3Z"/>
  </symbol>

</svg>