<svg xmlns="http://www.w3.org/2000/svg" style="display:none">

  <!-- arrow-left -->
  <symbol id="icon-arrow-left" viewBox="0 0 24 24">
  <path d="M20.45,10h-12.08l4.12-4.14c.78-.78.78-2.05,0-2.83-.78-.78-2.05-.78-2.83,0l-7.52,7.55c-.78.78-.78,2.04,0,2.82l7.52,7.55c.39.39.9.59,1.42.59s1.02-.19,1.41-.58c.78-.78.78-2.05,0-2.83l-4.12-4.13h12.08c1.1,0,2-.9,2-2s-.9-2-2-2Z" fill="currentColor"/>
</symbol>

  <!-- arrow-right -->
  <symbol id="icon-arrow-right" viewBox="0 0 24 24">
  <path d="M3.55,10h12.08s-4.12-4.14-4.12-4.14c-.78-.78-.78-2.05,0-2.83.78-.78,2.05-.78,2.83,0l7.52,7.55c.78.78.78,2.04,0,2.82l-7.52,7.55c-.39.39-.9.59-1.42.59s-1.02-.19-1.41-.58c-.78-.78-.78-2.05,0-2.83l4.12-4.13H3.55c-1.1,0-2-.9-2-2s.9-2,2-2Z" fill="currentColor"/>
</symbol>

  <!-- avatarDebt -->
  <symbol id="icon-avatar-debt" viewBox="0 0 24 24">
  <path fill="var(--avatar-debt-badge)" d="M12,23.04C5.91,23.04.96,18.09.96,12S5.91.96,12,.96c1.77,0,3.47.41,5.04,1.22l-.27.53c-1.48-.76-3.09-1.15-4.76-1.15C6.24,1.56,1.56,6.24,1.56,12s4.68,10.44,10.44,10.44,10.44-4.68,10.44-10.44c0-.99-.14-1.97-.41-2.91l.58-.17c.29,1,.44,2.03.44,3.08,0,6.09-4.95,11.04-11.04,11.04Z"/>
  <path fill="var(--avatar-debt-badge)" d="M21.83,7.5h-4.83c-.17,0-.33-.09-.42-.24-.1-.15-.1-.34-.02-.5l2.41-4.85c.09-.17.26-.28.45-.28h0c.19,0,.36.11.45.28l2.41,4.85c.08.16.07.35-.02.5-.09.15-.25.24-.42.24ZM19.27,5.72h.29s.06-.02.07-.05l.34-1.35c.03-.13-.01-.26-.13-.36-.1-.09-.26-.14-.42-.14s-.32.05-.42.14c-.11.09-.16.23-.13.36l.34,1.35s.04.05.07.05ZM19.42,6.06c-.19,0-.34.13-.34.28s.15.28.34.28.34-.13.34-.28-.15-.28-.34-.28Z"/>
  <path fill="var(--avatar-debt-body)" d="M15.08,9.3c0,1.7-1.38,3.08-3.08,3.08s-3.08-1.38-3.08-3.08,1.38-3.08,3.08-3.08,3.08,1.38,3.08,3.08ZM18.28,16.81c-1.45-1.89-3.72-3.1-6.28-3.1s-4.83,1.22-6.28,3.1c1.45,1.89,3.72,3.1,6.28,3.1s4.83-1.22,6.28-3.1Z"/>
</symbol>

  <!-- avatarNoDebt -->
  <symbol id="icon-avatar-nodebt" viewBox="0 0 24 24">
  <path fill="var(--avatar-nodebt-check)" d="M18.35,7.87l-1.84-2.91c-.19-.3-.1-.7.2-.9.3-.19.71-.1.9.2l.86,1.36,2.83-3.55c.22-.28.63-.33.91-.1.28.22.33.63.1.91l-3.96,4.99ZM23.04,12c0-2.06-.57-4.07-1.65-5.81l-.51.32c1.02,1.65,1.56,3.55,1.56,5.49,0,5.76-4.68,10.44-10.44,10.44S1.56,17.76,1.56,12,6.24,1.56,12,1.56c1.54,0,3.02.33,4.4.97l.25-.54c-1.46-.68-3.03-1.03-4.66-1.03C5.91.96.96,5.91.96,12s4.95,11.04,11.04,11.04,11.04-4.95,11.04-11.04Z"/>
  <path fill="var(--avatar-nodebt-body)" d="M15.08,9.3c0,1.7-1.38,3.08-3.08,3.08s-3.08-1.38-3.08-3.08,1.38-3.08,3.08-3.08,3.08,1.38,3.08,3.08ZM18.28,16.81c-1.45-1.89-3.72-3.1-6.28-3.1s-4.83,1.22-6.28,3.1c1.45,1.89,3.72,3.1,6.28,3.1s4.83-1.22,6.28-3.1Z"/>
</symbol>

  <!-- building-expenseunpaid -->
  <symbol id="icon-building-expenseunpaid" viewBox="0 0 24 24">
    <path fill="var(--accent-color-2)" d="M16.99,15.28h4.38c.34,0,.62.28.62.63v1.23c0,.35-.28.63-.62.63h-4.38c-.68,0-1.24-.56-1.24-1.24s.56-1.24,1.24-1.24ZM16.99,19.77c-1.78,0-3.23-1.46-3.23-3.25s1.45-3.25,3.23-3.25h3.38v-.66c0-.73-.59-1.32-1.32-1.32H5.08c-.6,0-1.08-.49-1.08-1.09s.49-1.09,1.08-1.09h3.78l1.99-2h-5.77c-1.67,0-3.03,1.35-3.07,3.02h0s0,8.95,0,8.95c0,1.61,1.3,2.91,2.91,2.91h14.14c.73,0,1.32-.59,1.32-1.32v-.9h-3.38Z"/>
    <path fill="var(--accent-color-2)" d="M21.19,2h-5.01c-.45,0-.68.55-.36.87l1.12,1.12-5.1,5.13h6.18l2.01-2.02,1.1,1.11c.32.32.87.09.87-.36V2.81c0-.45-.36-.81-.81-.81Z"/>
    <path fill="var(--accent-color-1)" d="M11.4,20.73c-.26,0-.51-.1-.71-.29l-2.29-2.29-2.29,2.29c-.39.39-1.02.39-1.41,0s-.39-1.02,0-1.41l2.29-2.29-2.29-2.29c-.39-.39-.39-1.02,0-1.41s1.02-.39,1.41,0l2.29,2.29,2.29-2.29c.39-.39,1.02-.39,1.41,0s.39,1.02,0,1.41l-2.29,2.29,2.29,2.29c.39.39.39,1.02,0,1.41-.2.2-.45.29-.71.29Z"/>
  </symbol>

  <!-- button-add-user -->
  <symbol id="icon-button-add-user" viewBox="0 0 24 24">
    <path fill="currentColor" d="M5.97,6.37c0-2.41,1.96-4.37,4.37-4.37s4.37,1.96,4.37,4.37c0,.43-.08.84-.2,1.23-2.09.32-3.93,1.42-5.2,3-1.91-.47-3.34-2.18-3.34-4.23ZM7.48,15.76c0-1.13.23-2.21.64-3.2-3.53.94-6.12,4.15-6.12,7.98v.31c0,.63.51,1.15,1.15,1.15h7.19c-1.75-1.52-2.86-3.75-2.86-6.24ZM15.75,9.5c-3.46,0-6.27,2.81-6.27,6.27s2.81,6.27,6.27,6.27,6.27-2.81,6.27-6.27-2.81-6.27-6.27-6.27ZM18.44,14.76c.55,0,1,.45,1,1s-.45,1-1,1h-1.69v1.69c0,.55-.45,1-1,1s-1-.45-1-1v-1.69h-1.69c-.55,0-1-.45-1-1s.45-1,1-1h1.69v-1.69c0-.55.45-1,1-1s1,.45,1,1v1.69h1.69Z"/>
  </symbol>

  <!-- button-paid -->
  <symbol id="icon-button-paid" viewBox="0 0 24 24">
    <path fill="var(--accent-color-1)" d="M19.37,7.12c.42-.53.34-1.31-.2-1.73-.53-.42-1.31-.34-1.73.2l-7.19,9.04-2.36-3.73c-.36-.58-1.13-.75-1.7-.38-.58.36-.75,1.12-.38,1.7l4.21,6.67,9.35-11.76Z"/>
  </symbol>

  <!-- button-unpaid -->
  <symbol id="icon-button-unpaid" viewBox="0 0 24 24">
    <path fill="var(--accent-color-1)" d="M14.9,7.71c0,2.68-2.17,4.85-4.85,4.85s-4.85-2.17-4.85-4.85,2.17-4.85,4.85-4.85,4.85,2.17,4.85,4.85Z"/>
    <path fill="var(--accent-color-2)" d="M12.15,15.56c-.09.13-.25.21-.41.21h-2.41c-.58,0-1.06.47-1.06,1.06s.47,1.06,1.06,1.06h3.89c.28,0,.5.22.5.5s-.22.5-.5.5h-3.89c-1.13,0-2.06-.92-2.06-2.06,0-.04,0-.07.01-.11l-3.44-1.77c-.64-.33-1.43-.06-1.74.59-.27.59-.05,1.29.51,1.62l6.88,4.04c1.73,1.02,3.87,1.06,5.64.11l2.35-1.26v-6.17h-2.34c-2.01.38-2.96,1.62-3,1.68Z"/>
    <rect fill="var(--accent-color-2)" x="18.49" y="13.43" width="3.51" height="7.1" rx=".84" ry=".84"/>
    <path fill="var(--accent-color-2)" d="M10.76,7.71l1.51-1.51c.2-.2.2-.51,0-.71s-.51-.2-.71,0l-1.51,1.51-1.51-1.51c-.2-.2-.51-.2-.71,0s-.2.51,0,.71l1.51,1.51-1.51,1.51c-.2.2-.2.51,0,.71.1.1.23.15.35.15s.26-.05.35-.15l1.51-1.51,1.51,1.51c.1.1.23.15.35.15s.26-.05.35-.15c.2-.2.2-.51,0-.71l-1.51-1.51Z"/>
  </symbol>

  <!-- icon-caret -->
  <symbol id="icon-caret" viewBox="0 0 24 24">
    <path fill="currentColor" d="M21.38,6.41c-.8-.77-2.07-.75-2.85.05l-6.54,6.79-6.54-6.79c-.77-.8-2.05-.82-2.85-.05-.8.77-.82,2.05-.05,2.85l7.99,8.29c.05.05.1.08.15.12.05.04.09.08.14.11.07.04.14.08.21.11.05.02.09.05.14.07.08.03.17.05.25.08.04.01.08.03.12.03.13.02.26.04.38.04s.26-.01.38-.04c.04,0,.08-.02.12-.03.09-.02.17-.04.26-.08.05-.02.09-.05.13-.07.07-.04.15-.07.22-.12.05-.03.09-.07.13-.11.05-.04.11-.08.16-.12l7.99-8.29c.77-.8.75-2.07-.05-2.85Z"/>
  </symbol>

  <!-- icon-check -->
<symbol id="icon-check" viewBox="0 0 24 24">
  <path fill="currentColor" d="M8.19,22.4L2.23,12.96c-.44-.7-.23-1.63.47-2.07.7-.44,1.63-.23,2.07.47l3.7,5.87L19.33,3.58c.52-.65,1.46-.76,2.11-.24.65.52.76,1.46.24,2.11l-13.48,16.96Z"/>
</symbol>

  <!-- icon-download -->
  <symbol id="icon-download" viewBox="0 0 24 24">
    <path fill="currentColor" d="M11.73,17.09c.09.09.2.16.32.21.12.05.25.08.38.08s.26-.03.38-.08c.12-.05.23-.12.32-.21l5.18-5.16c.39-.39.39-1.02,0-1.41-.39-.39-1.02-.39-1.41,0l-3.47,3.46V3.01c0-.55-.45-1-1-1s-1,.45-1,1v10.97l-3.47-3.46c-.39-.39-1.02-.39-1.41,0-.39.39-.39,1.02,0,1.41l5.18,5.16Z"/>
    <path fill="currentColor" d="M21,14.98c-.55,0-1,.45-1,1v4.02H4v-4.02c0-.55-.45-1-1-1s-1,.45-1,1v5.02c0,.55.45,1,1,1h18c.55,0,1-.45,1-1v-5.02c0-.55-.45-1-1-1Z"/>
  </symbol>

  <!-- icon-edit -->
  <symbol id="icon-edit" viewBox="0 0 24 24"><path d="M14.99,5.26l-4.64,4.64c-.29.29-.5.64-.62,1.02l-1.12,3.45c-.21.65.4,1.26,1.05,1.05l3.45-1.12c.38-.12.73-.34,1.02-.62l4.64-4.64-3.78-3.78ZM16.49,3.77l3.78,3.78,1.16-1.16c.73-.73.73-1.91,0-2.63l-1.15-1.15c-.73-.73-1.91-.73-2.63,0l-1.16,1.16ZM17.27,22.04H5.26c-1.79,0-3.24-1.45-3.24-3.24V6.78c0-1.79,1.45-3.24,3.24-3.24h5.46c.55,0,1,.45,1,1s-.45,1-1,1h-5.46c-.68,0-1.24.56-1.24,1.24v12.01c0,.68.56,1.24,1.24,1.24h12.01c.68,0,1.24-.56,1.24-1.24v-4.88c0-.55.45-1,1-1s1,.45,1,1v4.88c0,1.79-1.45,3.24-3.24,3.24Z" fill="currentColor"/></symbol>

  <!-- icon-ex -->
  <symbol id="icon-ex" viewBox="0 0 24 24">
    <path fill="currentColor" d="M14.12,12l6.03-6.03c.59-.59.59-1.54,0-2.12s-1.54-.59-2.12,0l-6.03,6.03L5.97,3.85c-.59-.59-1.54-.59-2.12,0s-.59,1.54,0,2.12l6.03,6.03-6.03,6.03c-.59.59-.59,1.54,0,2.12.29.29.68.44,1.06.44s.77-.15,1.06-.44l6.03-6.03,6.03,6.03c.29.29.68.44,1.06.44s.77-.15,1.06-.44c.59-.59.59-1.54,0-2.12l-6.03-6.03Z"/>
  </symbol>

  <!-- icon-go-today -->
  <symbol id="icon-go-today" viewBox="0 0 24 24">
    <path fill="currentColor" d="M12.47,4.72v-2c0-.55-.6-.9-1.07-.62l-6.36,3.66c-.35.2-.35.7,0,.9l6.36,3.66c.48.27,1.07-.07,1.07-.62v-1.98c2.98.16,5.35,2.63,5.35,5.65s-2.54,5.66-5.66,5.66-5.66-2.54-5.66-5.66c0-.83-.67-1.5-1.5-1.5s-1.5.67-1.5,1.5c0,4.78,3.89,8.66,8.66,8.66s8.66-3.88,8.66-8.66-3.72-8.48-8.35-8.65Z"/>
  </symbol>

  <!-- icon-hamburger -->
  <symbol id="icon-hamburger" viewBox="0 0 24 24">
    <path fill="currentColor" d="M15.33,7.5h-6.66c-.83,0-1.5-.67-1.5-1.5s.67-1.5,1.5-1.5h6.66c.83,0,1.5.67,1.5,1.5s-.67,1.5-1.5,1.5Z"/>
    <path fill="currentColor" d="M15.33,13.5h-6.66c-.83,0-1.5-.67-1.5-1.5s.67-1.5,1.5-1.5h6.66c.83,0,1.5.67,1.5,1.5s-.67,1.5-1.5,1.5Z"/>
    <path fill="currentColor" d="M15.33,19.5h-6.66c-.83,0-1.5-.67-1.5-1.5s.67-1.5,1.5-1.5h6.66c.83,0,1.5.67,1.5,1.5s-.67,1.5-1.5,1.5Z"/>
  </symbol>

  <!-- resident-card-icn -->
  <symbol id="resident-card-icn" viewBox="0 0 24 24">
  <path fill="currentColor" d="M20,4.8c1.1,0,2,.9,2,2v13.2c0,1.1-.9,2-2,2H4c-1.1,0-2-.9-2-2V4c0-1.1.9-2,2-2h5.42c1.1,0,2,.9,2,2v.79h8.58ZM8.49,9.05c-1.29,0-2.34,1.05-2.34,2.34s1.05,2.34,2.34,2.34,2.34-1.05,2.34-2.34-1.05-2.34-2.34-2.34ZM8.46,14.78h0c-2.45,0-4.44,1.99-4.44,4.44v.17c0,.34.28.62.62.62h7.64c.34,0,.62-.28.62-.62v-.17c0-2.45-1.99-4.44-4.44-4.44ZM18.61,14.63c0-.33-.27-.6-.6-.6h-3.29c-.33,0-.6.27-.6.6s.27.6.6.6h3.29c.33,0,.6-.27.6-.6ZM19.87,17.01c0-.33-.27-.6-.6-.6h-4.54c-.33,0-.6.27-.6.6s.27.6.6.6h4.54c.33,0,.6-.27.6-.6ZM17.84,19.4c0-.33-.27-.6-.6-.6h-2.51c-.33,0-.6.27-.6.6s.27.6.6.6h2.51c.33,0,.6-.27.6-.6Z"/>
</symbol>

  <!-- icon-synced -->
  <symbol id="icon-synced" viewBox="0 0 24 24">
    <path fill="var(--accent-color-1)" d="M7.29,17.55c-2.04,0-3.69-1.65-3.69-3.69s1.65-3.69,3.69-3.69c.05,0,.11.01.16.02.17-2.08,1.89-3.73,4.02-3.73,1.89,0,3.46,1.3,3.91,3.04.3-.07.62-.12.94-.12,2.26,0,4.09,1.83,4.09,4.09s-1.83,4.09-4.09,4.09H7.29ZM11.31,16.03l3.58-4.5c.17-.22.14-.53-.08-.7-.22-.17-.53-.14-.7.08l-3.14,3.95-1.05-1.66c-.15-.23-.46-.3-.69-.16-.23.15-.3.46-.16.69l1.42,2.25c.09.14.23.22.4.23h.03c.15,0,.3-.07.39-.19Z"/>
  </symbol>

  <!-- icon-trash -->
  <symbol id="icon-trash" viewBox="0 0 24 24">
    <path fill="currentColor" d="M19.62,5.93h-3.55v-1.43c0-1.38-1.12-2.49-2.49-2.49h-3.15c-1.38,0-2.49,1.12-2.49,2.49v1.43h-3.55c-.64,0-1.17.52-1.17,1.17s.52,1.17,1.17,1.17h.6v10.35c0,1.87,1.51,3.38,3.38,3.38h7.27c1.87,0,3.38-1.51,3.38-3.38v-10.35h.6c.64,0,1.17-.52,1.17-1.17s-.52-1.17-1.17-1.17ZM10.05,4.5c0-.21.17-.37.37-.37h3.15c.21,0,.37.17.37.37v1.43h-3.9v-1.43ZM9.76,18.05c-.59,0-1.06-.47-1.06-1.06v-4.86c0-.59.47-1.06,1.06-1.06s1.06.47,1.06,1.06v4.86c0,.59-.47,1.06-1.06,1.06ZM14.24,18.05c-.59,0-1.06-.47-1.06-1.06v-4.86c0-.59.47-1.06,1.06-1.06s1.06.47,1.06,1.06v4.86c0,.59-.47,1.06-1.06,1.06Z"/>
  </symbol>

  <!-- expenses-icn -->
  <symbol id="expenses-icn" viewBox="0 0 24 24">
  <path fill="currentColor" d="M17.41,11.78h3.56c.57,0,1.03.46,1.03,1.03v2.61c0,.57-.46,1.03-1.03,1.03h-3.42c-1.22,0-2.33-.88-2.46-2.09-.14-1.39.95-2.58,2.32-2.58ZM17.41,18.44c-2.39,0-4.33-1.94-4.33-4.33s1.94-4.33,4.33-4.33h2.59v-1.01c0-1.41-1.14-2.54-2.54-2.54H5.11c-.61,0-1.11-.5-1.11-1.11s.5-1.11,1.11-1.11h11.88c.55,0,1-.45,1-1s-.45-1-1-1H4.54c-1.41,0-2.54,1.14-2.54,2.54v14.91c0,1.41,1.14,2.54,2.54,2.54h12.91c1.41,0,2.54-1.14,2.54-2.54v-1.01h-2.59ZM17.41,13.08c-.57,0-1.03.46-1.03,1.03s.46,1.03,1.03,1.03,1.03-.46,1.03-1.03-.46-1.03-1.03-1.03Z"/>
</symbol>

  <!-- icon-warning-filled -->
  <symbol id="icon-warning-filled" viewBox="0 0 24 24">
    <path fill="var(--accent-color-1)" d="M19.78,21.96H4.22c-.73,0-1.4-.38-1.79-1-.4-.64-.44-1.43-.1-2.11L10.11,3.21c.36-.73,1.08-1.18,1.89-1.18s1.52.45,1.89,1.18l7.78,15.63c.34.68.3,1.47-.1,2.11-.39.63-1.06,1-1.79,1ZM11.59,15.77h.83c.09,0,.18-.07.2-.16l.97-4.8c.09-.46-.04-.94-.36-1.27-.3-.3-.73-.49-1.22-.49s-.92.19-1.22.49c-.32.33-.45.81-.36,1.27l.97,4.8c.02.1.1.16.2.16ZM11.99,16.83c-.72,0-1.3.58-1.3,1.3s.58,1.3,1.3,1.3,1.3-.58,1.3-1.3-.58-1.3-1.3-1.3Z"/>
  </symbol>

  <symbol id="icon-notes" viewBox="0 0 24 24"><path d="M21.62,14.49l-1.32,1.32-2.68-2.68,1.32-1.32c.25-.25.58-.38.91-.38s.65.13.9.38l.87.87c.5.5.5,1.31,0,1.81ZM12.53,18.22c-.17.17-.29.37-.35.6l-.73,2.49c-.1.36.17.69.51.69.05,0,.1,0,.16-.02l2.5-.73c.22-.06.42-.18.59-.35l3.68-3.68-2.68-2.68-3.68,3.68ZM6.78,8.67c-.28,0-.5.23-.5.5s.22.5.5.5h3.75c.28,0,.5-.22.5-.5s-.22-.5-.5-.5h-3.75ZM13.02,11.5h-6.24c-.28,0-.5.23-.5.5s.22.5.5.5h6.24c.28,0,.5-.22.5-.5s-.22-.5-.5-.5ZM7.41,20.01h-2.78c-.33,0-.6-.22-.6-.5V6.4c0-.27.28-.5.6-.5h11.29c.33,0,.6.23.6.5v2.06c0,.56.45,1,1,1s1-.44,1-1v-2.06c0-1.38-1.16-2.5-2.6-2.5h-.17v-.89c0-.56-.45-1-1-1s-1,.44-1,1v.89h-2.34v-.89c0-.56-.45-1-1-1s-1,.44-1,1v.89h-2.34v-.89c0-.56-.45-1-1-1s-1,.44-1,1v.89h-.44c-1.43,0-2.6,1.12-2.6,2.5v13.11c0,1.38,1.17,2.5,2.6,2.5h2.78c.55,0,.99-.43,1-.99h0c0-.56-.45-1.01-1-1.01Z" fill="currentColor"/></symbol>

  <!-- Neiboard Logo -->
  <symbol id="layer-1" viewBox="0 0 600 175">
  <path fill="currentColor" d="M188.13,42.18h16.36l26.03,33.44v-33.44h17.35v63.26h-15.27l-27.11-34.7v34.7h-17.35v-63.26ZM252.56,81.23v-.18c0-14.19,10.21-25.58,24.67-25.58,16.81,0,24.58,12.38,24.58,26.75,0,1.09,0,2.35-.09,3.53h-32.72c1.36,5.42,5.15,8.04,10.57,8.04,4.25,0,7.32-1.45,10.85-4.97l9.49,7.86c-4.7,6.06-11.39,9.94-21.15,9.94-15.36,0-26.21-10.3-26.21-25.4ZM285.82,76.98c-.63-5.42-3.88-8.86-8.59-8.86s-7.5,3.43-8.5,8.86h17.08ZM305.7,39.47h17.8v12.65h-17.8v-12.65ZM306.06,56.55h17.08v48.89h-17.08v-48.89ZM346.36,99.48v5.96h-17.17V39.47h17.17v23.59c3.34-4.07,7.5-7.59,14.82-7.59,11.57,0,21.69,9.67,21.69,25.31v.18c0,15.91-10.03,25.58-21.6,25.58-7.41,0-11.66-3.34-14.91-7.05ZM366.06,81.05v-.18c0-6.51-4.61-11.12-10.03-11.12s-10.03,4.61-10.03,11.12v.18c0,6.51,4.43,11.12,10.03,11.12s10.03-4.52,10.03-11.12ZM384.76,81.23v-.18c0-14.01,11.39-25.58,27.02-25.58s26.93,11.48,26.93,25.4v.18c0,14.01-11.48,25.58-27.11,25.58s-26.84-11.39-26.84-25.4ZM422.09,81.23v-.18c0-6.06-4.34-11.12-10.48-11.12s-10.21,4.88-10.21,10.94v.18c0,5.96,4.34,11.02,10.39,11.02s10.3-4.97,10.3-10.84ZM439.98,91.44v-.18c0-10.21,7.68-15.36,19.16-15.36,4.61,0,8.95.81,11.75,1.9v-.81c0-5.15-3.16-8.04-9.76-8.04-5.15,0-9.13.99-13.56,2.71l-3.53-12.02c5.51-2.26,11.39-3.8,19.79-3.8s14.73,2.08,18.62,5.96c3.71,3.62,5.24,8.68,5.24,15.55v28.11h-16.9v-5.15c-3.52,3.7-7.95,6.24-14.46,6.24-9.31,0-16.36-5.42-16.36-15.09ZM471.07,87.73v-2.26c-1.81-.72-4.25-1.27-6.78-1.27-5.06,0-7.86,2.35-7.86,6.06v.18c0,3.34,2.53,5.33,6.06,5.33,5.06,0,8.59-3.07,8.59-8.04ZM492.84,56.55h17.17v9.85c2.8-6.6,7.23-11.03,15.45-10.66v18.07h-1.45c-9.04,0-14.01,5.06-14.01,16.36v15.27h-17.17v-48.89ZM525.19,81.23v-.18c0-15.91,10.03-25.58,21.6-25.58,7.32,0,11.75,3.34,14.91,7.05v-23.05h17.17v65.97h-17.17v-6.51c-3.34,4.07-7.5,7.59-14.82,7.59-11.57,0-21.69-9.67-21.69-25.3ZM562.07,81.05v-.18c0-6.51-4.43-11.12-10.03-11.12s-10.03,4.61-10.03,11.12v.18c0,6.51,4.61,11.12,10.03,11.12s10.03-4.61,10.03-11.12ZM190.61,126.59h7.21c6.08,0,10.27,4.17,10.27,9.61v.05c0,5.44-4.2,9.67-10.27,9.67h-7.21v-19.33ZM194.01,129.68v13.15h3.81c4.06,0,6.71-2.73,6.71-6.52v-.06c0-3.78-2.65-6.57-6.71-6.57h-3.81ZM209.91,138.68v-.06c0-4.2,2.96-7.59,7.12-7.59,4.64,0,6.99,3.64,6.99,7.84,0,.31-.03.61-.05.94h-10.72c.36,2.4,2.02,3.7,4.2,3.7,1.66,0,2.76-.61,3.95-1.74l1.96,1.74c-1.41,1.66-3.29,2.74-5.96,2.74-4.2,0-7.48-3.07-7.48-7.57ZM220.71,137.61c-.22-2.13-1.49-3.84-3.7-3.84-2.07,0-3.48,1.55-3.78,3.84h7.48ZM229.63,143.65v2.26h-3.37v-20.16h3.37v8.01c1.08-1.52,2.57-2.73,4.97-2.73,3.42,0,6.77,2.71,6.77,7.57v.05c0,4.86-3.31,7.57-6.77,7.57-2.43,0-3.95-1.22-4.97-2.57ZM237.97,138.65v-.05c0-2.82-1.93-4.67-4.17-4.67s-4.25,1.88-4.25,4.67v.05c0,2.79,1.96,4.67,4.25,4.67s4.17-1.79,4.17-4.67ZM244.4,141.89v-7.68h-1.85v-2.87h1.85v-4h3.34v4h3.92v2.87h-3.92v7.15c0,1.3.66,1.82,1.79,1.82.72,0,1.41-.17,2.07-.5v2.73c-.86.47-1.71.75-3.01.75-2.46,0-4.2-1.08-4.2-4.28ZM272.34,143.68c-1.66,1.55-3.59,2.51-5.91,2.51-3.62,0-6.35-2.18-6.35-5.52v-.06c0-2.51,1.49-4.28,4.14-5.38-1.1-1.44-1.6-2.62-1.6-4.03v-.06c0-2.62,2.13-4.89,5.55-4.89,3.07,0,5.14,2.07,5.14,4.67v.05c0,2.54-1.68,4.06-4.25,5.03l3.31,3.37c.75-1.11,1.44-2.38,2.07-3.73l2.57,1.35c-.77,1.55-1.63,3.06-2.62,4.39l3.06,3.1-2.54,1.82-2.57-2.62ZM270.4,141.69l-4.31-4.39c-1.8.77-2.57,1.96-2.57,3.2v.06c0,1.66,1.35,2.81,3.23,2.81,1.33,0,2.54-.61,3.65-1.68ZM270.29,131.17v-.05c0-1.3-.88-2.18-2.18-2.18-1.41,0-2.32.99-2.32,2.32v.06c0,.97.39,1.68,1.46,2.87,1.99-.75,3.04-1.6,3.04-3.01ZM286.8,126.59h14.33v3.04h-10.94v5.03h9.69v3.06h-9.69v5.17h11.07v3.04h-14.47v-19.33ZM309.72,136.23l3.4-4.89h3.56l-5.14,7.13,5.36,7.46h-3.65l-3.59-5.19-3.56,5.19h-3.56l5.33-7.43-5.14-7.15h3.64l3.34,4.89ZM318.69,131.34h3.37v2.43c1.08-1.52,2.57-2.73,4.97-2.73,3.42,0,6.77,2.71,6.77,7.57v.05c0,4.86-3.31,7.57-6.77,7.57-2.43,0-3.95-1.22-4.97-2.57v6.68h-3.37v-19ZM330.4,138.65v-.05c0-2.82-1.93-4.67-4.17-4.67s-4.25,1.88-4.25,4.67v.05c0,2.79,1.96,4.67,4.25,4.67s4.17-1.79,4.17-4.67ZM335.34,138.68v-.06c0-4.2,2.96-7.59,7.12-7.59,4.64,0,6.99,3.64,6.99,7.84,0,.31-.03.61-.05.94h-10.72c.36,2.4,2.02,3.7,4.2,3.7,1.66,0,2.76-.61,3.95-1.74l1.96,1.74c-1.41,1.66-3.29,2.74-5.96,2.74-4.2,0-7.48-3.07-7.48-7.57ZM346.14,137.61c-.22-2.13-1.49-3.84-3.7-3.84-2.07,0-3.48,1.55-3.78,3.84h7.48ZM351.68,131.34h3.37v2.24c.97-1.35,2.26-2.54,4.56-2.54,3.31,0,5.19,2.18,5.19,5.58v9.3h-3.34v-8.29c0-2.29-1.13-3.56-3.12-3.56s-3.29,1.32-3.29,3.62v8.23h-3.37v-14.58ZM366.54,144.01l1.49-2.27c1.63,1.19,3.26,1.8,4.78,1.8,1.44,0,2.26-.61,2.26-1.57v-.05c0-1.11-1.55-1.52-3.26-2.04-2.13-.58-4.56-1.49-4.56-4.25v-.06c0-2.79,2.29-4.47,5.19-4.47,1.85,0,3.81.64,5.36,1.66l-1.33,2.38c-1.41-.85-2.9-1.38-4.11-1.38-1.3,0-2.04.64-2.04,1.44v.06c0,1.05,1.57,1.55,3.29,2.07,2.1.66,4.53,1.63,4.53,4.25v.06c0,3.07-2.38,4.59-5.41,4.59-2.1,0-4.34-.72-6.19-2.18ZM379.65,138.68v-.06c0-4.2,2.96-7.59,7.12-7.59,4.64,0,6.99,3.64,6.99,7.84,0,.31-.03.61-.05.94h-10.72c.36,2.4,2.02,3.7,4.2,3.7,1.66,0,2.76-.61,3.95-1.74l1.96,1.74c-1.41,1.66-3.29,2.74-5.96,2.74-4.2,0-7.48-3.07-7.48-7.57ZM390.45,137.61c-.22-2.13-1.49-3.84-3.7-3.84-2.07,0-3.48,1.55-3.78,3.84h7.48ZM408.31,129.74h-6.16v-3.15h15.71v3.15h-6.16v16.18h-3.4v-16.18ZM417.94,131.34h3.37v3.29c.91-2.21,2.6-3.67,5.16-3.56v3.53h-.19c-2.96,0-4.97,1.9-4.97,5.77v5.55h-3.37v-14.58ZM426.58,141.72v-.06c0-3.18,2.48-4.69,6.05-4.69,1.66,0,2.79.25,3.92.61v-.36c0-2.1-1.27-3.18-3.62-3.18-1.66,0-2.84.36-4.17.91l-.91-2.62c1.63-.69,3.2-1.19,5.52-1.19,2.18,0,3.78.55,4.83,1.63,1.08,1.08,1.57,2.6,1.57,4.5v8.64h-3.26v-1.82c-.99,1.18-2.51,2.13-4.75,2.13-2.73,0-5.19-1.55-5.19-4.5ZM436.61,140.67v-.99c-.86-.33-1.99-.58-3.31-.58-2.18,0-3.42.88-3.42,2.43v.05c0,1.41,1.22,2.21,2.84,2.21,2.21,0,3.89-1.24,3.89-3.12ZM441.88,138.71v-.06c0-4.14,3.2-7.62,7.59-7.62,2.74,0,4.42,1.02,5.83,2.51l-2.1,2.24c-1.02-1.08-2.1-1.82-3.75-1.82-2.43,0-4.23,2.1-4.23,4.64v.05c0,2.6,1.79,4.67,4.36,4.67,1.57,0,2.71-.72,3.78-1.79l2.02,1.99c-1.44,1.63-3.12,2.74-5.96,2.74-4.34,0-7.54-3.4-7.54-7.54ZM457.31,125.76h3.37v12.04l6.05-6.46h4.06l-5.8,5.94,5.99,8.64h-3.92l-4.31-6.32-2.07,2.15v4.17h-3.37v-20.16ZM470.81,138.68v-.06c0-4.2,2.96-7.59,7.12-7.59,4.64,0,6.99,3.64,6.99,7.84,0,.31-.03.61-.05.94h-10.72c.36,2.4,2.02,3.7,4.2,3.7,1.66,0,2.76-.61,3.95-1.74l1.96,1.74c-1.41,1.66-3.29,2.74-5.96,2.74-4.2,0-7.48-3.07-7.48-7.57ZM481.61,137.61c-.22-2.13-1.49-3.84-3.7-3.84-2.07,0-3.48,1.55-3.78,3.84h7.48ZM487.16,131.34h3.37v3.29c.91-2.21,2.6-3.67,5.16-3.56v3.53h-.19c-2.96,0-4.97,1.9-4.97,5.77v5.55h-3.37v-14.58ZM122.99,145.92h0s0,0,0,0h0ZM135.22,80.89l-1.56,4.75c-.17.52.26,1.04.8.97l6.68-.81c.67-.08,1.23-.55,1.44-1.19l1.53-4.74c.17-.52-.26-1.03-.8-.97l-6.65.81c-.67.08-1.23.54-1.44,1.18ZM148.16,100.59h-4.93s-17.18,49.99-17.18,49.99l-3.19-41.4c-.33-4.32-4.2-7.48-8.49-6.96l-22.55,2.75,10.81-28.07,50.7-6.17-27.21-47.02h-24.11l6.24,21.54-34.31-21.12h-21.47l-27.73,63.36,54.07-7.69v-23.56l18.19,21.34-6.44,27.54-23.51,2.86-2.84-4.92c-1.86-3.23-5.47-5.03-9.17-4.58l-22.86,2.78c-3.81.46-5.9,4.66-3.99,7.98l19.29,33.52c3.03,5.27,8.65,8.51,14.72,8.51h63.92s25.66-44.45,25.66-44.45c1.6-2.78-.4-6.25-3.61-6.25"/>
</symbol>

</svg>