<svg xmlns="http://www.w3.org/2000/svg" style="display:none">

  <!-- arrow-left-icon -->
  <symbol id="arrow-left-icon" viewBox="0 0 24 24">
<path fill="currentColor" d="M20.68,10.5H6.93l4.79-4.81c.58-.59.58-1.54,0-2.12-.59-.59-1.54-.58-2.12,0l-7.35,7.37c-.58.58-.58,1.53,0,2.12l7.35,7.37c.29.29.68.44,1.06.44s.77-.15,1.06-.44c.59-.58.59-1.54,0-2.12l-4.79-4.81h13.76c.83,0,1.5-.67,1.5-1.5s-.67-1.5-1.5-1.5Z"/>
</symbol>

  <!-- arrow-right-icon -->
  <symbol id="arrow-right-icon" viewBox="0 0 24 24">
<path fill="currentColor" d="M21.75,10.94l-7.35-7.37c-.58-.59-1.53-.59-2.12,0-.59.58-.59,1.54,0,2.12l4.79,4.81H3.32c-.83,0-1.5.67-1.5,1.5s.67,1.5,1.5,1.5h13.76l-4.79,4.81c-.58.59-.58,1.54,0,2.12.29.29.68.44,1.06.44s.77-.15,1.06-.44l7.35-7.37c.58-.58.58-1.53,0-2.12Z"/>
</symbol>

  <!-- avatarDebt -->
  <symbol id="icon-avatar-debt" viewBox="0 0 24 24">
  <path fill="var(--avatar-debt-badge)" d="M12,23.04C5.91,23.04.96,18.09.96,12S5.91.96,12,.96c1.77,0,3.47.41,5.04,1.22l-.27.53c-1.48-.76-3.09-1.15-4.76-1.15C6.24,1.56,1.56,6.24,1.56,12s4.68,10.44,10.44,10.44,10.44-4.68,10.44-10.44c0-.99-.14-1.97-.41-2.91l.58-.17c.29,1,.44,2.03.44,3.08,0,6.09-4.95,11.04-11.04,11.04Z"/>
  <path fill="var(--avatar-debt-badge)" d="M21.83,7.5h-4.83c-.17,0-.33-.09-.42-.24-.1-.15-.1-.34-.02-.5l2.41-4.85c.09-.17.26-.28.45-.28h0c.19,0,.36.11.45.28l2.41,4.85c.08.16.07.35-.02.5-.09.15-.25.24-.42.24ZM19.27,5.72h.29s.06-.02.07-.05l.34-1.35c.03-.13-.01-.26-.13-.36-.1-.09-.26-.14-.42-.14s-.32.05-.42.14c-.11.09-.16.23-.13.36l.34,1.35s.04.05.07.05ZM19.42,6.06c-.19,0-.34.13-.34.28s.15.28.34.28.34-.13.34-.28-.15-.28-.34-.28Z"/>
  <path fill="var(--avatar-debt-body)" d="M15.08,9.3c0,1.7-1.38,3.08-3.08,3.08s-3.08-1.38-3.08-3.08,1.38-3.08,3.08-3.08,3.08,1.38,3.08,3.08ZM18.28,16.81c-1.45-1.89-3.72-3.1-6.28-3.1s-4.83,1.22-6.28,3.1c1.45,1.89,3.72,3.1,6.28,3.1s4.83-1.22,6.28-3.1Z"/>
</symbol>

  <!-- avatarNoDebt -->
  <symbol id="icon-avatar-nodebt" viewBox="0 0 24 24">
  <path fill="var(--avatar-nodebt-check)" d="M18.35,7.87l-1.84-2.91c-.19-.3-.1-.7.2-.9.3-.19.71-.1.9.2l.86,1.36,2.83-3.55c.22-.28.63-.33.91-.1.28.22.33.63.1.91l-3.96,4.99ZM23.04,12c0-2.06-.57-4.07-1.65-5.81l-.51.32c1.02,1.65,1.56,3.55,1.56,5.49,0,5.76-4.68,10.44-10.44,10.44S1.56,17.76,1.56,12,6.24,1.56,12,1.56c1.54,0,3.02.33,4.4.97l.25-.54c-1.46-.68-3.03-1.03-4.66-1.03C5.91.96.96,5.91.96,12s4.95,11.04,11.04,11.04,11.04-4.95,11.04-11.04Z"/>
  <path fill="var(--avatar-nodebt-body)" d="M15.08,9.3c0,1.7-1.38,3.08-3.08,3.08s-3.08-1.38-3.08-3.08,1.38-3.08,3.08-3.08,3.08,1.38,3.08,3.08ZM18.28,16.81c-1.45-1.89-3.72-3.1-6.28-3.1s-4.83,1.22-6.28,3.1c1.45,1.89,3.72,3.1,6.28,3.1s4.83-1.22,6.28-3.1Z"/>
</symbol>

  <!-- building-expenseunpaid -->
  <symbol id="icon-building-expenseunpaid" viewBox="0 0 24 24">
    <path fill="var(--color-accent-2)" d="M16.99,15.28h4.38c.34,0,.62.28.62.63v1.23c0,.35-.28.63-.62.63h-4.38c-.68,0-1.24-.56-1.24-1.24s.56-1.24,1.24-1.24ZM16.99,19.77c-1.78,0-3.23-1.46-3.23-3.25s1.45-3.25,3.23-3.25h3.38v-.66c0-.73-.59-1.32-1.32-1.32H5.08c-.6,0-1.08-.49-1.08-1.09s.49-1.09,1.08-1.09h3.78l1.99-2h-5.77c-1.67,0-3.03,1.35-3.07,3.02h0s0,8.95,0,8.95c0,1.61,1.3,2.91,2.91,2.91h14.14c.73,0,1.32-.59,1.32-1.32v-.9h-3.38Z"/>
    <path fill="var(--color-accent-2)" d="M21.19,2h-5.01c-.45,0-.68.55-.36.87l1.12,1.12-5.1,5.13h6.18l2.01-2.02,1.1,1.11c.32.32.87.09.87-.36V2.81c0-.45-.36-.81-.81-.81Z"/>
    <path fill="var(--color-accent-1)" d="M11.4,20.73c-.26,0-.51-.1-.71-.29l-2.29-2.29-2.29,2.29c-.39.39-1.02.39-1.41,0s-.39-1.02,0-1.41l2.29-2.29-2.29-2.29c-.39-.39-.39-1.02,0-1.41s1.02-.39,1.41,0l2.29,2.29,2.29-2.29c.39-.39,1.02-.39,1.41,0s.39,1.02,0,1.41l-2.29,2.29,2.29,2.29c.39.39.39,1.02,0,1.41-.2.2-.45.29-.71.29Z"/>
  </symbol>

  <!-- button-add-user -->
  <symbol id="icon-button-add-user" viewBox="0 0 24 24">
    <path fill="currentColor" d="M5.97,6.37c0-2.41,1.96-4.37,4.37-4.37s4.37,1.96,4.37,4.37c0,.43-.08.84-.2,1.23-2.09.32-3.93,1.42-5.2,3-1.91-.47-3.34-2.18-3.34-4.23ZM7.48,15.76c0-1.13.23-2.21.64-3.2-3.53.94-6.12,4.15-6.12,7.98v.31c0,.63.51,1.15,1.15,1.15h7.19c-1.75-1.52-2.86-3.75-2.86-6.24ZM15.75,9.5c-3.46,0-6.27,2.81-6.27,6.27s2.81,6.27,6.27,6.27,6.27-2.81,6.27-6.27-2.81-6.27-6.27-6.27ZM18.44,14.76c.55,0,1,.45,1,1s-.45,1-1,1h-1.69v1.69c0,.55-.45,1-1,1s-1-.45-1-1v-1.69h-1.69c-.55,0-1-.45-1-1s.45-1,1-1h1.69v-1.69c0-.55.45-1,1-1s1,.45,1,1v1.69h1.69Z"/>
  </symbol>

  <!-- button-paid -->
  <symbol id="icon-button-paid" viewBox="0 0 24 24">
    <path fill="var(--color-accent-1)" d="M19.37,7.12c.42-.53.34-1.31-.2-1.73-.53-.42-1.31-.34-1.73.2l-7.19,9.04-2.36-3.73c-.36-.58-1.13-.75-1.7-.38-.58.36-.75,1.12-.38,1.7l4.21,6.67,9.35-11.76Z"/>
  </symbol>

  <!-- button-unpaid -->
  <symbol id="icon-button-unpaid" viewBox="0 0 24 24">
    <path fill="var(--color-accent-1)" d="M14.9,7.71c0,2.68-2.17,4.85-4.85,4.85s-4.85-2.17-4.85-4.85,2.17-4.85,4.85-4.85,4.85,2.17,4.85,4.85Z"/>
    <path fill="var(--color-accent-2)" d="M12.15,15.56c-.09.13-.25.21-.41.21h-2.41c-.58,0-1.06.47-1.06,1.06s.47,1.06,1.06,1.06h3.89c.28,0,.5.22.5.5s-.22.5-.5.5h-3.89c-1.13,0-2.06-.92-2.06-2.06,0-.04,0-.07.01-.11l-3.44-1.77c-.64-.33-1.43-.06-1.74.59-.27.59-.05,1.29.51,1.62l6.88,4.04c1.73,1.02,3.87,1.06,5.64.11l2.35-1.26v-6.17h-2.34c-2.01.38-2.96,1.62-3,1.68Z"/>
    <rect fill="var(--color-accent-2)" x="18.49" y="13.43" width="3.51" height="7.1" rx=".84" ry=".84"/>
    <path fill="var(--color-accent-2)" d="M10.76,7.71l1.51-1.51c.2-.2.2-.51,0-.71s-.51-.2-.71,0l-1.51,1.51-1.51-1.51c-.2-.2-.51-.2-.71,0s-.2.51,0,.71l1.51,1.51-1.51,1.51c-.2.2-.2.51,0,.71.1.1.23.15.35.15s.26-.05.35-.15l1.51-1.51,1.51,1.51c.1.1.23.15.35.15s.26-.05.35-.15c.2-.2.2-.51,0-.71l-1.51-1.51Z"/>
  </symbol>

  <!-- icon-caret -->
  <symbol id="icon-caret" viewBox="0 0 24 24">
    <path fill="currentColor" d="M21.38,6.41c-.8-.77-2.07-.75-2.85.05l-6.54,6.79-6.54-6.79c-.77-.8-2.05-.82-2.85-.05-.8.77-.82,2.05-.05,2.85l7.99,8.29c.05.05.1.08.15.12.05.04.09.08.14.11.07.04.14.08.21.11.05.02.09.05.14.07.08.03.17.05.25.08.04.01.08.03.12.03.13.02.26.04.38.04s.26-.01.38-.04c.04,0,.08-.02.12-.03.09-.02.17-.04.26-.08.05-.02.09-.05.13-.07.07-.04.15-.07.22-.12.05-.03.09-.07.13-.11.05-.04.11-.08.16-.12l7.99-8.29c.77-.8.75-2.07-.05-2.85Z"/>
  </symbol>

  <!-- icon-check -->
<symbol id="icon-check" viewBox="0 0 24 24">
  <path fill="currentColor" d="M8.19,22.4L2.23,12.96c-.44-.7-.23-1.63.47-2.07.7-.44,1.63-.23,2.07.47l3.7,5.87L19.33,3.58c.52-.65,1.46-.76,2.11-.24.65.52.76,1.46.24,2.11l-13.48,16.96Z"/>
</symbol>

  <!-- icon-download -->
  <symbol id="icon-download" viewBox="0 0 24 24">
    <path fill="currentColor" d="M11.73,17.09c.09.09.2.16.32.21.12.05.25.08.38.08s.26-.03.38-.08c.12-.05.23-.12.32-.21l5.18-5.16c.39-.39.39-1.02,0-1.41-.39-.39-1.02-.39-1.41,0l-3.47,3.46V3.01c0-.55-.45-1-1-1s-1,.45-1,1v10.97l-3.47-3.46c-.39-.39-1.02-.39-1.41,0-.39.39-.39,1.02,0,1.41l5.18,5.16Z"/>
    <path fill="currentColor" d="M21,14.98c-.55,0-1,.45-1,1v4.02H4v-4.02c0-.55-.45-1-1-1s-1,.45-1,1v5.02c0,.55.45,1,1,1h18c.55,0,1-.45,1-1v-5.02c0-.55-.45-1-1-1Z"/>
  </symbol>

  <!-- icon-edit -->
  <symbol id="icon-edit" viewBox="0 0 24 24"><path d="M14.99,5.26l-4.64,4.64c-.29.29-.5.64-.62,1.02l-1.12,3.45c-.21.65.4,1.26,1.05,1.05l3.45-1.12c.38-.12.73-.34,1.02-.62l4.64-4.64-3.78-3.78ZM16.49,3.77l3.78,3.78,1.16-1.16c.73-.73.73-1.91,0-2.63l-1.15-1.15c-.73-.73-1.91-.73-2.63,0l-1.16,1.16ZM17.27,22.04H5.26c-1.79,0-3.24-1.45-3.24-3.24V6.78c0-1.79,1.45-3.24,3.24-3.24h5.46c.55,0,1,.45,1,1s-.45,1-1,1h-5.46c-.68,0-1.24.56-1.24,1.24v12.01c0,.68.56,1.24,1.24,1.24h12.01c.68,0,1.24-.56,1.24-1.24v-4.88c0-.55.45-1,1-1s1,.45,1,1v4.88c0,1.79-1.45,3.24-3.24,3.24Z" fill="currentColor"/></symbol>

  <!-- icon-ex -->
  <symbol id="icon-ex" viewBox="0 0 24 24">
    <path fill="currentColor" d="M14.12,12l6.03-6.03c.59-.59.59-1.54,0-2.12s-1.54-.59-2.12,0l-6.03,6.03L5.97,3.85c-.59-.59-1.54-.59-2.12,0s-.59,1.54,0,2.12l6.03,6.03-6.03,6.03c-.59.59-.59,1.54,0,2.12.29.29.68.44,1.06.44s.77-.15,1.06-.44l6.03-6.03,6.03,6.03c.29.29.68.44,1.06.44s.77-.15,1.06-.44c.59-.59.59-1.54,0-2.12l-6.03-6.03Z"/>
  </symbol>

  <!-- gotoday-icon -->
  <symbol id="gotoday-icon" viewBox="0 0 24 24">
  <path fill="currentColor" d="M22.02,9.57v10.93c0,.83-.67,1.5-1.5,1.5s-1.5-.67-1.5-1.5v-10.93c0-2.52-2.05-4.56-4.56-4.56s-4.56,2.05-4.56,4.56v2.53l2.31-2.39c.58-.6,1.53-.61,2.12-.04.6.58.61,1.53.04,2.12l-4.89,5.06c-.28.29-.67.46-1.08.46s-.8-.17-1.08-.46l-4.89-5.06c-.58-.6-.56-1.55.04-2.12.59-.58,1.54-.56,2.12.04l2.31,2.39v-2.53c0-4.17,3.39-7.56,7.56-7.56s7.56,3.39,7.56,7.56ZM14.05,20.5H2.75c-.41,0-.75.34-.75.75s.34.75.75.75h11.3c.41,0,.75-.34.75-.75s-.34-.75-.75-.75Z"/>
</symbol>

  <!-- main-settings -->
  <symbol id="main-settings" viewBox="0 0 24 24">
  <path fill="currentColor" d="M22,5c0-.55-.45-1-1-1H3c-.55,0-1,.45-1,1s.45,1,1,1h18c.55,0,1-.45,1-1ZM22,12c0-.55-.45-1-1-1H3c-.55,0-1,.45-1,1s.45,1,1,1h18c.55,0,1-.45,1-1ZM22,19c0-.55-.45-1-1-1H3c-.55,0-1,.45-1,1s.45,1,1,1h18c.55,0,1-.45,1-1Z"/>
</symbol>

  <!-- resident-card-icn -->
  <symbol id="resident-card-icn" viewBox="0 0 24 24">
  <path fill="currentColor" d="M20,4.8c1.1,0,2,.9,2,2v13.2c0,1.1-.9,2-2,2H4c-1.1,0-2-.9-2-2V4c0-1.1.9-2,2-2h5.42c1.1,0,2,.9,2,2v.79h8.58ZM8.49,9.05c-1.29,0-2.34,1.05-2.34,2.34s1.05,2.34,2.34,2.34,2.34-1.05,2.34-2.34-1.05-2.34-2.34-2.34ZM8.46,14.78h0c-2.45,0-4.44,1.99-4.44,4.44v.17c0,.34.28.62.62.62h7.64c.34,0,.62-.28.62-.62v-.17c0-2.45-1.99-4.44-4.44-4.44ZM18.61,14.63c0-.33-.27-.6-.6-.6h-3.29c-.33,0-.6.27-.6.6s.27.6.6.6h3.29c.33,0,.6-.27.6-.6ZM19.87,17.01c0-.33-.27-.6-.6-.6h-4.54c-.33,0-.6.27-.6.6s.27.6.6.6h4.54c.33,0,.6-.27.6-.6ZM17.84,19.4c0-.33-.27-.6-.6-.6h-2.51c-.33,0-.6.27-.6.6s.27.6.6.6h2.51c.33,0,.6-.27.6-.6Z"/>
</symbol>

<symbol id="warnOutline-icn" viewBox="0 0 24 24">
  <path d="M20.09,22H3.91c-.66,0-1.27-.34-1.62-.91-.36-.58-.39-1.29-.08-1.9L10.3,3.06c.33-.65.98-1.06,1.7-1.06h0c.72,0,1.37.41,1.7,1.06l8.09,16.13c.31.61.28,1.32-.08,1.9-.35.57-.95.91-1.62.91ZM12,3.5c-.07,0-.26.02-.36.23L3.55,19.86c-.1.2-.02.37.02.44.04.07.15.2.34.2h16.18c.19,0,.3-.12.34-.2.04-.06.12-.24.02-.44L12.36,3.73c-.1-.21-.29-.23-.36-.23ZM11.6,15.73c-.09,0-.17-.07-.19-.16l-.93-4.66c-.09-.44.04-.91.35-1.23.29-.29.7-.48,1.17-.48s.88.18,1.17.48c.31.32.44.79.35,1.23l-.93,4.66c-.02.09-.1.16-.19.16h-.79ZM11.99,16.88c-.55,0-1,.45-1,1s.45,1,1,1,1-.45,1-1-.45-1-1-1Z" fill="currentColor"/>
</symbol>

  <!-- icon-synced -->
  <symbol id="icon-synced" viewBox="0 0 24 24">
    <path fill="var(--color-accent-1)" d="M7.29,17.55c-2.04,0-3.69-1.65-3.69-3.69s1.65-3.69,3.69-3.69c.05,0,.11.01.16.02.17-2.08,1.89-3.73,4.02-3.73,1.89,0,3.46,1.3,3.91,3.04.3-.07.62-.12.94-.12,2.26,0,4.09,1.83,4.09,4.09s-1.83,4.09-4.09,4.09H7.29ZM11.31,16.03l3.58-4.5c.17-.22.14-.53-.08-.7-.22-.17-.53-.14-.7.08l-3.14,3.95-1.05-1.66c-.15-.23-.46-.3-.69-.16-.23.15-.3.46-.16.69l1.42,2.25c.09.14.23.22.4.23h.03c.15,0,.3-.07.39-.19Z"/>
  </symbol>

  <!-- icon-trash -->
  <symbol id="icon-trash" viewBox="0 0 24 24">
    <path fill="currentColor" d="M19.62,5.93h-3.55v-1.43c0-1.38-1.12-2.49-2.49-2.49h-3.15c-1.38,0-2.49,1.12-2.49,2.49v1.43h-3.55c-.64,0-1.17.52-1.17,1.17s.52,1.17,1.17,1.17h.6v10.35c0,1.87,1.51,3.38,3.38,3.38h7.27c1.87,0,3.38-1.51,3.38-3.38v-10.35h.6c.64,0,1.17-.52,1.17-1.17s-.52-1.17-1.17-1.17ZM10.05,4.5c0-.21.17-.37.37-.37h3.15c.21,0,.37.17.37.37v1.43h-3.9v-1.43ZM9.76,18.05c-.59,0-1.06-.47-1.06-1.06v-4.86c0-.59.47-1.06,1.06-1.06s1.06.47,1.06,1.06v4.86c0,.59-.47,1.06-1.06,1.06ZM14.24,18.05c-.59,0-1.06-.47-1.06-1.06v-4.86c0-.59.47-1.06,1.06-1.06s1.06.47,1.06,1.06v4.86c0,.59-.47,1.06-1.06,1.06Z"/>
  </symbol>

  <!-- expenses-icn -->
  <symbol id="expenses-icn" viewBox="0 0 24 24">
  <path fill="currentColor" d="M17.41,11.78h3.56c.57,0,1.03.46,1.03,1.03v2.61c0,.57-.46,1.03-1.03,1.03h-3.42c-1.22,0-2.33-.88-2.46-2.09-.14-1.39.95-2.58,2.32-2.58ZM17.41,18.44c-2.39,0-4.33-1.94-4.33-4.33s1.94-4.33,4.33-4.33h2.59v-1.01c0-1.41-1.14-2.54-2.54-2.54H5.11c-.61,0-1.11-.5-1.11-1.11s.5-1.11,1.11-1.11h11.88c.55,0,1-.45,1-1s-.45-1-1-1H4.54c-1.41,0-2.54,1.14-2.54,2.54v14.91c0,1.41,1.14,2.54,2.54,2.54h12.91c1.41,0,2.54-1.14,2.54-2.54v-1.01h-2.59ZM17.41,13.08c-.57,0-1.03.46-1.03,1.03s.46,1.03,1.03,1.03,1.03-.46,1.03-1.03-.46-1.03-1.03-1.03Z"/>
</symbol>

  <!-- icon-warning-filled -->
  <symbol id="icon-warning-filled" viewBox="0 0 24 24">
    <path fill="var(--color-accent-1)" d="M19.78,21.96H4.22c-.73,0-1.4-.38-1.79-1-.4-.64-.44-1.43-.1-2.11L10.11,3.21c.36-.73,1.08-1.18,1.89-1.18s1.52.45,1.89,1.18l7.78,15.63c.34.68.3,1.47-.1,2.11-.39.63-1.06,1-1.79,1ZM11.59,15.77h.83c.09,0,.18-.07.2-.16l.97-4.8c.09-.46-.04-.94-.36-1.27-.3-.3-.73-.49-1.22-.49s-.92.19-1.22.49c-.32.33-.45.81-.36,1.27l.97,4.8c.02.1.1.16.2.16ZM11.99,16.83c-.72,0-1.3.58-1.3,1.3s.58,1.3,1.3,1.3,1.3-.58,1.3-1.3-.58-1.3-1.3-1.3Z"/>
  </symbol>

  <symbol id="icon-notes" viewBox="0 0 24 24"><path d="M21.62,14.49l-1.32,1.32-2.68-2.68,1.32-1.32c.25-.25.58-.38.91-.38s.65.13.9.38l.87.87c.5.5.5,1.31,0,1.81ZM12.53,18.22c-.17.17-.29.37-.35.6l-.73,2.49c-.1.36.17.69.51.69.05,0,.1,0,.16-.02l2.5-.73c.22-.06.42-.18.59-.35l3.68-3.68-2.68-2.68-3.68,3.68ZM6.78,8.67c-.28,0-.5.23-.5.5s.22.5.5.5h3.75c.28,0,.5-.22.5-.5s-.22-.5-.5-.5h-3.75ZM13.02,11.5h-6.24c-.28,0-.5.23-.5.5s.22.5.5.5h6.24c.28,0,.5-.22.5-.5s-.22-.5-.5-.5ZM7.41,20.01h-2.78c-.33,0-.6-.22-.6-.5V6.4c0-.27.28-.5.6-.5h11.29c.33,0,.6.23.6.5v2.06c0,.56.45,1,1,1s1-.44,1-1v-2.06c0-1.38-1.16-2.5-2.6-2.5h-.17v-.89c0-.56-.45-1-1-1s-1,.44-1,1v.89h-2.34v-.89c0-.56-.45-1-1-1s-1,.44-1,1v.89h-2.34v-.89c0-.56-.45-1-1-1s-1,.44-1,1v.89h-.44c-1.43,0-2.6,1.12-2.6,2.5v13.11c0,1.38,1.17,2.5,2.6,2.5h2.78c.55,0,.99-.43,1-.99h0c0-.56-.45-1.01-1-1.01Z" fill="currentColor"/></symbol>

  <!-- reset-icn -->
  <symbol id="reset-icn" viewBox="0 0 24 24">
    <path fill="currentColor" d="M12.47,4.72v-2c0-.55-.6-.9-1.07-.62l-6.36,3.66c-.35.2-.35.7,0,.9l6.36,3.66c.48.27,1.07-.07,1.07-.62v-1.98c2.98.16,5.35,2.63,5.35,5.65s-2.54,5.66-5.66,5.66-5.66-2.54-5.66-5.66c0-.83-.67-1.5-1.5-1.5s-1.5.67-1.5,1.5c0,4.78,3.89,8.66,8.66,8.66s8.66-3.88,8.66-8.66-3.72-8.48-8.35-8.65Z"/>
  </symbol>

<symbol id="report-icn" viewBox="0 0 24 24">
  <path d="M20.37,6.33v12.63c0,1.68-1.36,3.04-3.04,3.04H6.67c-1.68,0-3.04-1.36-3.04-3.04V6.33c0-1.68,1.36-3.04,3.04-3.04h.88l-.66,1.34c-.03.05-.04.11-.06.16h-.16c-.85,0-1.54.69-1.54,1.54v12.63c0,.85.69,1.54,1.54,1.54h10.65c.85,0,1.54-.69,1.54,1.54V6.33c0-.85-.69-1.54-1.54-1.54h-.16c-.02-.05-.03-.11-.06-.16l-.66-1.34h.88c1.68,0,3.04,1.36,3.04,3.04ZM15.76,5.29l-1.31-2.65c-.17-.35-.64-.64-1.03-.64h-2.83c-.44,0-.84.25-1.03.64l-1.31,2.65c-.18.36.08.78.48.78h6.55c.4,0,.66-.42.48-.78ZM12,2.89c.47,0,.85.38.85.85s-.38.85-.85.85-.85-.38-.85-.85.38-.85.85-.85ZM16.44,10.92c0-.28-.22-.5-.5-.5h-7.88c-.28,0-.5.22-.5.5s.22.5.5.5h7.88c.28,0,.5-.22.5-.5ZM16.44,13.94c0-.28-.22-.5-.5-.5h-7.88c-.28,0-.5.22-.5.5s.22.5.5.5h7.88c.28,0,.5-.22.5-.5ZM13.65,16.99c0-.28-.22-.5-.5-.5h-5.08c-.28,0-.5.22-.5.5s.22.5.5.5h5.08c.28,0,.5-.22.5-.5Z" fill="currentColor"/>
</symbol>

<symbol id="export-icn" viewBox="0 0 24 24">
  <path fill="currentColor" d="M18.24,9.73c-.58.59-1.53.59-2.12,0l-2.62-2.61v9.1c0,.83-.67,1.5-1.5,1.5s-1.5-.67-1.5-1.5V7.12l-2.62,2.61c-.59.59-1.54.58-2.12,0-.58-.59-.58-1.54,0-2.12l5.18-5.16c.29-.29.68-.44,1.06-.44s.77.15,1.06.44l5.18,5.16c.59.58.59,1.54,0,2.12ZM22,17.58v-1.48c0-.41-.34-.75-.75-.75s-.75.34-.75.75v1.48c0,1.62-1.31,2.93-2.93,2.93H6.43c-1.61,0-2.93-1.31-2.93-2.93v-1.48c0-.41-.34-.75-.75-.75s-.75.34-.75.75v1.48c0,2.44,1.99,4.43,4.43,4.43h11.14c2.44,0,4.43-1.99,4.43-4.43Z"/>
</symbol>

<symbol id="import-icn" viewBox="0 0 24 24">
  <path fill="currentColor" d="M18.24,12.12l-5.18,5.16c-.29.29-.68.44-1.06.44s-.77-.15-1.06-.44l-5.18-5.16c-.59-.58-.59-1.54,0-2.12.58-.59,1.53-.59,2.12,0l2.62,2.61V3.51c0-.83.67-1.5,1.5-1.5s1.5.67,1.5,1.5v9.1l2.62-2.61c.59-.59,1.54-.58,2.12,0s.58,1.54,0,2.12ZM22,17.58v-1.48c0-.41-.34-.75-.75-.75s-.75.34-.75.75v1.48c0,1.62-1.31,2.93-2.93,2.93H6.43c-1.61,0-2.93-1.31-2.93-2.93v-1.48c0-.41-.34-.75-.75-.75s-.75.34-.75.75v1.48c0,2.44,1.99,4.43,4.43,4.43h11.14c2.44,0,4.43-1.99,4.43-4.43Z"/>
</symbol>

<symbol id="nextItem-icn" viewBox="0 0 24 24">
  <path fill="currentColor" d="M5.07,4.16h13.84c1.02,0,1.57,1.2.91,1.98l-6.82,7.97c-.53.62-1.48.62-2.01,0l-6.82-7.97c-.67-.78-.11-1.98.91-1.98ZM20.12,18.84c0-.55-.45-1-1-1H4.89c-.55,0-1,.45-1,1s.45,1,1,1h14.23c.55,0,1-.45,1-1Z"/>
</symbol>

<symbol id="palette-icn" viewBox="0 0 24 24">
  <path d="M22,11.8c-.1,4.53-4.96,4.68-6.44,4.68-.84,0-1.52.68-1.52,1.52,0,.39.2.82.38,1.14.26.47.75,2.99-2.42,2.86-5.52-.23-10-4.48-10-10S6.48,2,12,2s10.11,4.54,10,9.81ZM16.49,7.02c-1.13,0-2.05.92-2.05,2.05s.92,2.05,2.05,2.05,2.05-.92,2.05-2.05-.92-2.05-2.05-2.05ZM10.51,4.97c-1.13,0-2.05.92-2.05,2.05s.92,2.05,2.05,2.05,2.05-.92,2.05-2.05-.92-2.05-2.05-2.05ZM6.72,9.95c-1.13,0-2.05.92-2.05,2.05s.92,2.05,2.05,2.05,2.05-.92,2.05-2.05-.92-2.05-2.05-2.05Z" fill="currentColor"/>
</symbol>

  <!-- recurring-icn -->
<symbol id="recurring-icn" viewBox="0 0 24 24">
  <path fill="currentColor" d="M21.78,11.6l-2.57,2.56c-.2.19-.45.29-.71.29s-.51-.1-.71-.29l-2.57-2.56c-.39-.39-.39-1.02,0-1.41.39-.39,1.02-.39,1.41,0l.86.86v-4.99c0-1.13-.92-2.04-2.04-2.04h-6.83c-1.13,0-2.04.92-2.04,2.04,0,.55-.45,1-1,1s-1-.45-1-1c0-2.23,1.81-4.04,4.04-4.04h6.83c2.23,0,4.04,1.81,4.04,4.04v4.99l.86-.86c.39-.39,1.02-.39,1.41,0s.39,1.02,0,1.41ZM18.5,16.96c-.55,0-1,.45-1,1,0,1.13-.92,2.04-2.04,2.04h-6.83c-1.13,0-2.04-.92-2.04-2.04v-4.99l.86.86c.2.19.45.29.71.29s.51-.1.71-.29c.39-.39.39-1.02,0-1.41l-2.57-2.56c-.39-.39-1.02-.39-1.41,0l-2.57,2.56c-.39.39-.39,1.02,0,1.41.39.39,1.02.39,1.41,0l.86-.86v4.99c0,2.23,1.81,4.04,4.04,4.04h6.83c2.23,0,4.04-1.81,4.04-4.04,0-.55-.45-1-1-1Z" />
</symbol>

  <!-- Neiboard Logo -->
  <symbol id="neiboard-logo" viewBox="0 0 91 24">
  <path fill="currentColor" d="M27.7,7.16h2.56l4.08,5.24v-5.24h2.72v9.92h-2.39l-4.25-5.44v5.44h-2.72V7.16ZM37.8,13.28v-.03c0-2.22,1.6-4.01,3.87-4.01,2.64,0,3.85,1.94,3.85,4.19,0,.17,0,.37-.01.55h-5.13c.21.85.81,1.26,1.66,1.26.67,0,1.15-.23,1.7-.78l1.49,1.23c-.74.95-1.79,1.56-3.32,1.56-2.41,0-4.11-1.62-4.11-3.98ZM43.01,12.62c-.1-.85-.61-1.39-1.35-1.39s-1.18.54-1.33,1.39h2.68ZM46.13,6.74h2.79v1.98h-2.79v-1.98ZM46.19,9.41h2.68v7.66h-2.68v-7.66ZM52.5,16.14v.94h-2.69V6.74h2.69v3.7c.52-.64,1.18-1.19,2.32-1.19,1.81,0,3.4,1.52,3.4,3.97v.03c0,2.49-1.57,4.01-3.39,4.01-1.16,0-1.83-.52-2.34-1.11ZM55.59,13.25v-.03c0-1.02-.72-1.74-1.57-1.74s-1.57.72-1.57,1.74v.03c0,1.02.69,1.74,1.57,1.74s1.57-.71,1.57-1.74ZM58.53,13.28v-.03c0-2.2,1.79-4.01,4.24-4.01s4.22,1.8,4.22,3.98v.03c0,2.2-1.8,4.01-4.25,4.01s-4.21-1.79-4.21-3.98ZM64.38,13.28v-.03c0-.95-.68-1.74-1.64-1.74s-1.6.77-1.6,1.71v.03c0,.94.68,1.73,1.63,1.73s1.62-.78,1.62-1.7ZM67.18,14.88v-.03c0-1.6,1.2-2.41,3-2.41.72,0,1.4.13,1.84.3v-.13c0-.81-.5-1.26-1.53-1.26-.81,0-1.43.16-2.13.43l-.55-1.88c.86-.35,1.79-.6,3.1-.6s2.31.33,2.92.94c.58.57.82,1.36.82,2.44v4.41h-2.65v-.81c-.55.58-1.25.98-2.27.98-1.46,0-2.56-.85-2.56-2.37ZM72.05,14.3v-.35c-.28-.11-.67-.2-1.06-.2-.79,0-1.23.37-1.23.95v.03c0,.52.4.84.95.84.79,0,1.35-.48,1.35-1.26ZM75.47,9.41h2.69v1.54c.44-1.03,1.13-1.73,2.42-1.67v2.83h-.23c-1.42,0-2.2.79-2.2,2.56v2.39h-2.69v-7.66ZM80.54,13.28v-.03c0-2.49,1.57-4.01,3.39-4.01,1.15,0,1.84.52,2.34,1.11v-3.61h2.69v10.34h-2.69v-1.02c-.52.64-1.18,1.19-2.32,1.19-1.81,0-3.4-1.52-3.4-3.97ZM86.32,13.25v-.03c0-1.02-.69-1.74-1.57-1.74s-1.57.72-1.57,1.74v.03c0,1.02.72,1.74,1.57,1.74s1.57-.72,1.57-1.74ZM19.4,10.96l-.24.74c-.03.08.04.16.12.15l1.05-.13c.11-.01.19-.09.23-.19l.24-.74c.03-.08-.04-.16-.13-.15l-1.04.13c-.1.01-.19.08-.23.18ZM21.43,14.05h-.77s-2.69,7.84-2.69,7.84l-.5-6.49c-.05-.68-.66-1.17-1.33-1.09l-3.54.43,1.69-4.4,7.95-.97-4.27-7.37h-3.78l.98,3.38-5.38-3.31h-3.37L2.08,12l8.48-1.21v-3.69l2.85,3.35-1.01,4.32-3.69.45-.44-.77c-.29-.51-.86-.79-1.44-.72l-3.58.44c-.6.07-.93.73-.63,1.25l3.02,5.25c.48.83,1.36,1.33,2.31,1.33h10.02s4.02-6.97,4.02-6.97c.25-.44-.06-.98-.57-.98Z" />
</symbol>

</svg>